ply
format ascii 1.0
comment Created by Blender 2.74 (sub 0) - www.blender.org, source file: ''
element vertex 554
property float x
property float y
property float z
property float nx
property float ny
property float nz
property uchar red
property uchar green
property uchar blue
element face 240
property list uchar uint vertex_indices
end_header
0.486582 0.143668 0.426466 0.012281 -0.481037 0.876614 0 0 0
0.478828 0.031327 0.364929 0.012281 -0.481037 0.876614 39 39 39
0.646174 0.023434 0.358253 0.012281 -0.481037 0.876614 0 0 0
0.478828 0.031327 0.364929 -0.034041 -0.959171 0.280771 39 39 39
0.472231 -0.004460 0.241871 -0.034041 -0.959171 0.280771 1 1 1
0.639577 -0.012354 0.235195 -0.034041 -0.959171 0.280771 55 55 55
0.472231 -0.004460 0.241871 -0.060422 -0.875435 -0.479544 255 255 255
0.470655 0.057269 0.129380 -0.060422 -0.875435 -0.479544 255 255 255
0.638001 0.049376 0.122704 -0.060422 -0.875435 -0.479544 255 255 255
0.470655 0.057269 0.129380 -0.051409 -0.278881 -0.958949 255 255 255
0.475024 0.180355 0.093350 -0.051409 -0.278881 -0.958949 255 255 255
0.642370 0.172462 0.086674 -0.051409 -0.278881 -0.958949 255 255 255
0.475024 0.180355 0.093350 -0.012281 0.481038 -0.876614 255 255 255
0.482777 0.292696 0.154887 -0.012281 0.481038 -0.876614 255 255 255
0.650123 0.284802 0.148211 -0.012281 0.481038 -0.876614 235 235 235
0.482777 0.292696 0.154887 0.034041 0.959171 -0.280771 0 0 0
0.489374 0.328483 0.277945 0.034041 0.959171 -0.280771 0 0 0
0.656721 0.320590 0.271269 0.034041 0.959171 -0.280771 25 25 25
0.478828 0.031327 0.364929 -0.998097 0.047078 0.039817 129 129 129
0.490950 0.266754 0.390436 -0.998097 0.047078 0.039817 151 151 151
0.482777 0.292696 0.154887 -0.998097 0.047078 0.039817 47 47 47
0.490950 0.266754 0.390436 0.051409 0.278881 0.958948 49 49 49
0.486582 0.143668 0.426466 0.051409 0.278881 0.958948 0 0 0
0.653928 0.135775 0.419791 0.051409 0.278881 0.958948 0 0 0
0.656721 0.320590 0.271269 0.060422 0.875435 0.479544 148 148 148
0.489374 0.328483 0.277945 0.060422 0.875435 0.479544 0 0 0
0.490950 0.266754 0.390436 0.060422 0.875435 0.479544 48 48 48
0.653928 0.135775 0.419791 0.998097 -0.047078 -0.039817 80 80 80
0.639577 -0.012354 0.235195 0.998097 -0.047078 -0.039817 45 45 45
0.638001 0.049376 0.122704 0.998097 -0.047078 -0.039817 0 0 0
-0.244672 0.245444 -1.000000 0.006824 -0.999977 0.000000 29 17 2
0.532291 0.250746 -1.000000 0.006824 -0.999977 0.000000 88 56 10
0.532290 0.250746 -0.904505 0.006824 -0.999977 0.000000 41 25 4
-0.290949 0.492341 -0.642862 0.862594 0.505896 -0.000000 255 181 89
-0.290949 0.492342 -0.528485 0.862594 0.505896 -0.000000 255 180 86
-0.245954 0.415621 -0.544488 0.862594 0.505896 -0.000000 255 179 84
-0.290949 0.492341 -0.904506 -0.982885 -0.184223 -0.000012 120 75 12
-0.290948 0.492341 -1.000001 -0.982885 -0.184223 -0.000012 122 76 12
-0.244672 0.245444 -1.000000 -0.982885 -0.184223 -0.000012 120 75 12
-0.290948 0.492341 -1.000001 0.000001 0.000001 -1.000000 255 179 84
0.580371 0.492341 -1.000000 0.000001 0.000001 -1.000000 255 194 117
0.532291 0.250746 -1.000000 0.000001 0.000001 -1.000000 251 176 82
0.532291 0.250746 -1.000000 0.980766 -0.195185 0.000005 159 99 17
0.580371 0.492341 -1.000000 0.980766 -0.195185 0.000005 122 76 12
0.580371 0.492341 -0.904505 0.980766 -0.195185 0.000005 126 79 12
0.580371 0.492341 -0.642862 -0.862593 0.505898 -0.000000 253 177 82
0.535375 0.415621 -0.647052 -0.862593 0.505898 -0.000000 163 101 17
0.535375 0.415621 -0.544487 -0.862593 0.505898 -0.000000 242 167 74
0.580370 0.492343 -0.221695 0.000000 0.527912 -0.849299 255 179 84
0.535375 0.415622 -0.269384 0.000000 0.527912 -0.849299 255 179 84
-0.245954 0.415622 -0.269384 0.000000 0.527912 -0.849299 255 179 84
0.580371 0.492341 -0.904505 0.943679 -0.330863 0.000001 126 79 12
0.580371 0.492341 -0.803039 0.943679 -0.330863 0.000001 157 98 16
0.532290 0.355207 -0.803039 0.943679 -0.330863 0.000001 154 95 16
-0.290949 0.492341 -0.904506 -0.966115 -0.181084 -0.183931 120 75 12
-0.244672 0.245444 -0.904505 -0.966115 -0.181084 -0.183931 41 25 4
-0.283569 0.349905 -0.803039 -0.966115 -0.181084 -0.183931 41 25 4
-0.244672 0.245444 -0.904505 0.004754 -0.696740 0.717308 41 25 4
0.532290 0.250746 -0.904505 0.004754 -0.696740 0.717308 159 98 16
0.532290 0.355207 -0.803039 0.004754 -0.696740 0.717308 154 95 16
0.580371 0.492342 -0.528484 -0.862594 0.505897 -0.000003 255 179 84
0.535375 0.415621 -0.544487 -0.862594 0.505897 -0.000003 255 179 84
0.535375 0.415622 -0.269384 -0.862594 0.505897 -0.000003 255 179 84
0.532290 0.355207 -0.803039 0.943679 -0.330863 0.000000 154 95 16
0.580371 0.492341 -0.803039 0.943679 -0.330863 0.000000 157 98 16
0.580371 0.492341 -0.642862 0.943679 -0.330863 0.000000 163 101 17
-0.283569 0.349905 -0.803039 -0.998660 -0.051744 -0.000001 122 76 12
-0.283569 0.349905 -0.642862 -0.998660 -0.051744 -0.000001 122 76 12
-0.290949 0.492341 -0.642862 -0.998660 -0.051744 -0.000001 122 76 12
0.532290 0.355207 -0.803039 0.006498 -0.999979 0.000001 154 95 16
0.532290 0.355207 -0.642861 0.006498 -0.999979 0.000001 122 76 12
-0.283569 0.349905 -0.642862 0.006498 -0.999979 0.000001 108 67 11
0.535376 0.415621 -0.881673 0.000000 1.000000 -0.000000 255 179 84
-0.245953 0.415621 -0.967305 0.000000 1.000000 -0.000000 255 179 84
-0.245954 0.415621 -0.881673 0.000000 1.000000 -0.000000 255 179 84
0.532290 0.355207 -0.642861 0.943679 -0.330863 0.000002 122 76 12
0.580371 0.492341 -0.642862 0.943679 -0.330863 0.000002 163 101 17
0.580371 0.492342 -0.528484 0.943679 -0.330863 0.000002 163 101 17
-0.283569 0.349905 -0.642862 -0.969615 -0.181740 0.163760 122 76 12
-0.244672 0.245445 -0.528484 -0.969615 -0.181740 0.163760 122 76 12
-0.290949 0.492342 -0.528485 -0.969615 -0.181740 0.163760 162 100 17
0.532290 0.355207 -0.642861 0.005039 -0.738382 -0.674364 0 0 0
0.532290 0.250746 -0.528484 0.005039 -0.738382 -0.674364 22 12 2
-0.244672 0.245445 -0.528484 0.005039 -0.738382 -0.674364 0 0 0
0.532290 0.250746 -0.528484 0.980766 -0.195186 0.000002 163 101 17
0.580371 0.492342 -0.528484 0.980766 -0.195186 0.000002 163 101 17
0.580370 0.492343 -0.221695 0.980766 -0.195186 0.000002 122 76 12
-0.244672 0.245445 -0.528484 -0.982884 -0.184228 -0.000000 122 76 12
-0.244672 0.245446 0.064881 -0.982884 -0.184228 -0.000000 44 27 4
-0.290950 0.492343 -0.221696 -0.982884 -0.184228 -0.000000 127 79 13
-0.244672 0.245445 -0.528484 0.006824 -0.999977 0.000002 8 6 0
0.532290 0.250746 -0.528484 0.006824 -0.999977 0.000002 65 40 6
0.532290 0.250748 0.064882 0.006824 -0.999977 0.000002 47 30 5
0.580370 0.690129 0.099862 0.000000 1.000000 -0.000005 255 179 84
-0.290950 0.690129 0.099861 0.000000 1.000000 -0.000005 255 179 84
0.580370 0.690130 0.197452 0.000000 1.000000 -0.000005 255 179 84
0.532290 0.250748 0.064882 0.980766 -0.195185 0.000000 160 99 16
0.580370 0.492343 -0.221695 0.980766 -0.195185 0.000000 122 76 12
0.580370 0.492343 0.174928 0.980766 -0.195185 0.000000 163 101 17
-0.244672 0.245446 0.064881 -0.955520 -0.049510 -0.290741 44 27 4
-0.283569 0.349907 0.174928 -0.955520 -0.049510 -0.290741 161 100 17
-0.290950 0.492343 0.174927 -0.955520 -0.049510 -0.290741 163 101 17
-0.244672 0.245446 0.064881 0.004949 -0.725264 0.688453 44 27 4
0.532290 0.250748 0.064882 0.004949 -0.725264 0.688453 161 100 17
0.532290 0.355209 0.174928 0.004949 -0.725264 0.688453 163 101 17
-0.290950 0.492343 0.355060 0.000000 1.000000 -0.000002 182 118 31
-0.290950 0.492343 0.456867 0.000000 1.000000 -0.000002 255 179 84
0.580370 0.492343 0.456867 0.000000 1.000000 -0.000002 255 179 84
0.532290 0.355209 0.174928 0.943679 -0.330863 0.000001 163 101 17
0.580370 0.492343 0.174928 0.943679 -0.330863 0.000001 163 101 17
0.580370 0.492343 0.355060 0.943679 -0.330863 0.000001 96 60 9
-0.283569 0.349907 0.174928 -0.998660 -0.051745 -0.000001 162 101 17
-0.283570 0.349907 0.355060 -0.998660 -0.051745 -0.000001 150 94 19
-0.290950 0.492343 0.355060 -0.998660 -0.051745 -0.000001 157 98 17
-0.283569 0.349907 0.174928 0.006498 -0.999979 0.000002 163 101 17
0.532290 0.355209 0.174928 0.006498 -0.999979 0.000002 163 101 17
0.532289 0.355209 0.355061 0.006498 -0.999979 0.000002 154 95 16
-0.290950 0.492343 0.456867 -0.000000 0.973537 0.228531 122 76 12
-0.290950 0.451886 0.629214 -0.000000 0.973537 0.228531 163 101 17
0.580370 0.451886 0.629214 -0.000000 0.973537 0.228531 165 103 19
0.532289 0.355209 0.355061 0.943679 -0.330863 0.000002 154 95 16
0.580370 0.492343 0.355060 0.943679 -0.330863 0.000002 96 60 9
0.580370 0.492343 0.456867 0.943679 -0.330863 0.000002 163 101 17
-0.283570 0.349907 0.355060 -0.966224 -0.181104 0.183337 137 85 15
-0.244673 0.245446 0.456867 -0.966224 -0.181104 0.183337 139 86 15
-0.290950 0.492343 0.456867 -0.966224 -0.181104 0.183337 120 75 12
0.532289 0.355209 0.355061 0.004763 -0.697942 -0.716138 41 25 4
0.532289 0.250748 0.456867 0.004763 -0.697942 -0.716138 41 25 4
-0.244673 0.245446 0.456867 0.004763 -0.697942 -0.716138 33 19 5
-0.290950 0.451886 0.629214 -0.000000 0.000003 1.000000 122 76 12
-0.244673 0.283956 0.629214 -0.000000 0.000003 1.000000 119 74 13
0.532289 0.289258 0.629215 -0.000000 0.000003 1.000000 135 84 14
0.532289 0.250748 0.456867 0.979739 -0.194981 -0.045770 163 101 17
0.580370 0.492343 0.456867 0.979739 -0.194981 -0.045770 163 101 17
0.580370 0.451886 0.629214 0.979739 -0.194981 -0.045770 163 101 17
-0.244673 0.245446 0.456867 -0.962370 -0.265204 0.059258 139 86 15
-0.244673 0.283956 0.629214 -0.962370 -0.265204 0.059258 118 74 13
-0.290950 0.451886 0.629214 -0.962370 -0.265204 0.059258 163 101 17
0.532289 0.250748 0.456867 0.006659 -0.975912 0.218062 163 101 17
0.532289 0.289258 0.629215 0.006659 -0.975912 0.218062 135 84 14
-0.244673 0.283956 0.629214 0.006659 -0.975912 0.218062 119 74 13
0.580370 0.690130 0.197452 0.000001 0.623197 0.782065 130 82 16
0.551597 0.676612 0.208224 0.000001 0.623197 0.782065 127 80 15
0.551597 0.505861 0.344289 0.000001 0.623197 0.782065 122 76 12
0.580370 0.492343 -0.221695 0.000001 0.345299 -0.938493 255 179 84
-0.290950 0.492343 -0.221696 0.000001 0.345299 -0.938493 255 179 84
-0.290950 0.690129 -0.148924 0.000001 0.345299 -0.938493 255 179 84
-0.290949 0.492342 -0.528485 0.862594 0.505897 -0.000001 122 76 12
-0.290950 0.492343 -0.221696 0.862594 0.505897 -0.000001 122 76 12
-0.245954 0.415622 -0.269384 0.862594 0.505897 -0.000001 122 76 12
-0.290949 0.492341 -0.642862 0.862594 0.505897 -0.000001 255 181 89
-0.245954 0.415621 -0.647052 0.862594 0.505897 -0.000001 255 179 84
-0.245954 0.415621 -0.790687 0.862594 0.505897 -0.000001 255 179 84
0.580371 0.492341 -0.642862 -0.862594 0.505896 -0.000001 122 76 12
0.580371 0.492341 -0.803039 -0.862594 0.505896 -0.000001 155 95 16
0.535376 0.415621 -0.790686 -0.862594 0.505896 -0.000001 163 101 17
-0.290949 0.492341 -0.803040 0.862594 0.505896 0.000000 255 180 86
-0.245954 0.415621 -0.790687 0.862594 0.505896 0.000000 255 179 84
-0.245954 0.415621 -0.881673 0.862594 0.505896 0.000000 255 179 84
0.580371 0.492341 -0.803039 -0.862594 0.505897 -0.000002 251 175 81
0.580371 0.492341 -0.904505 -0.862594 0.505897 -0.000002 255 179 84
0.535376 0.415621 -0.881673 -0.862594 0.505897 -0.000002 168 105 21
0.580371 0.492341 -0.904505 -0.862594 0.505897 -0.000004 255 179 84
0.580371 0.492341 -1.000000 -0.862594 0.505897 -0.000004 248 176 86
0.535376 0.415621 -0.967304 -0.862594 0.505897 -0.000004 163 101 17
-0.290948 0.492341 -1.000001 -0.000001 0.392047 0.919945 255 179 84
-0.245953 0.415621 -0.967305 -0.000001 0.392047 0.919945 255 179 84
0.535376 0.415621 -0.967304 -0.000001 0.392047 0.919945 163 101 17
-0.290949 0.492341 -0.904506 0.862593 0.505899 0.000010 255 180 87
-0.245954 0.415621 -0.881673 0.862593 0.505899 0.000010 255 179 84
-0.245953 0.415621 -0.967305 0.862593 0.505899 0.000010 255 179 84
0.580370 0.690130 0.197452 1.000000 0.000000 0.000001 129 81 16
0.580370 0.492343 0.174928 1.000000 0.000000 0.000001 163 101 17
0.580370 0.690129 0.099862 1.000000 0.000000 0.000001 128 81 16
-0.290950 0.492343 0.174927 -1.000000 -0.000000 -0.000000 163 101 17
-0.290950 0.492343 0.355060 -1.000000 -0.000000 -0.000000 157 98 17
-0.290950 0.690130 0.197452 -1.000000 -0.000000 -0.000000 243 170 78
0.551597 0.505861 0.344289 -0.000001 0.623197 0.782065 122 76 12
0.551597 0.676612 0.208224 -0.000001 0.623197 0.782065 127 80 15
-0.267837 0.676612 0.208224 -0.000001 0.623197 0.782065 174 117 40
-0.290950 0.492343 0.355060 -0.000004 0.623197 0.782064 156 97 17
-0.267836 0.505861 0.344288 -0.000004 0.623197 0.782064 160 99 17
-0.267837 0.676612 0.208224 -0.000004 0.623197 0.782064 174 117 40
-0.290950 0.690130 0.197452 -0.000001 0.623192 0.782069 195 131 51
-0.267837 0.676612 0.208224 -0.000001 0.623192 0.782069 174 117 40
0.551597 0.676612 0.208224 -0.000001 0.623192 0.782069 127 80 15
-0.290950 0.492343 0.355060 -0.000000 0.623195 0.782067 156 97 17
0.580370 0.492343 0.355060 -0.000000 0.623195 0.782067 137 85 13
0.551597 0.505861 0.344289 -0.000000 0.623195 0.782067 122 76 12
-0.290950 0.492343 -0.221696 0.000000 0.000000 0.000000 255 255 255
-0.290950 0.690129 -0.148924 0.000000 0.000000 0.000000 255 255 255
-0.290950 0.690129 -0.148924 0.000000 0.000000 0.000000 255 255 255
-0.290950 0.492343 0.355060 0.000000 0.000000 0.000000 255 255 255
-0.290950 0.690130 0.197452 0.000000 0.000000 0.000000 255 255 255
-0.290950 0.690130 0.197452 0.000000 0.000000 0.000000 255 255 255
-0.290950 0.492343 -0.221696 0.000000 0.000000 0.000000 255 255 255
-0.290950 0.690129 -0.148924 0.000000 0.000000 0.000000 255 255 255
-0.290950 0.492343 0.355060 0.000000 0.000000 0.000000 255 255 255
-0.290950 0.690130 0.197452 0.000000 0.000000 0.000000 255 255 255
0.658855 0.135774 -0.549423 0.012281 -0.481037 0.876614 0 0 0
0.491508 0.143668 -0.542747 0.012281 -0.481037 0.876614 0 0 0
0.483755 0.031327 -0.604285 0.012281 -0.481037 0.876614 0 0 0
0.483755 0.031327 -0.604285 -0.034041 -0.959171 0.280771 0 0 0
0.477158 -0.004460 -0.727342 -0.034041 -0.959171 0.280771 0 0 0
0.644504 -0.012354 -0.734018 -0.034041 -0.959171 0.280771 0 0 0
0.477158 -0.004460 -0.727342 -0.060422 -0.875435 -0.479544 50 50 50
0.475582 0.057269 -0.839834 -0.060422 -0.875435 -0.479544 24 24 24
0.642928 0.049376 -0.846510 -0.060422 -0.875435 -0.479544 0 0 0
0.475582 0.057269 -0.839834 -0.051409 -0.278881 -0.958949 24 24 24
0.479950 0.180355 -0.875864 -0.051409 -0.278881 -0.958949 0 0 0
0.647296 0.172462 -0.882540 -0.051409 -0.278881 -0.958949 0 0 0
0.647296 0.172462 -0.882540 -0.012281 0.481038 -0.876614 0 0 0
0.479950 0.180355 -0.875864 -0.012281 0.481038 -0.876614 0 0 0
0.487704 0.292696 -0.814326 -0.012281 0.481038 -0.876614 31 31 31
0.655050 0.284802 -0.821002 0.034041 0.959171 -0.280771 0 0 0
0.487704 0.292696 -0.814326 0.034041 0.959171 -0.280771 31 31 31
0.494301 0.328483 -0.691269 0.034041 0.959171 -0.280771 2 1 0
0.483755 0.031327 -0.604285 -0.998097 0.047078 0.039817 107 107 107
0.491508 0.143668 -0.542747 -0.998097 0.047078 0.039817 114 114 114
0.487704 0.292696 -0.814326 -0.998097 0.047078 0.039817 31 31 31
0.495877 0.266754 -0.578777 0.051409 0.278881 0.958949 0 0 0
0.491508 0.143668 -0.542747 0.051409 0.278881 0.958949 0 0 0
0.658855 0.135774 -0.549423 0.051409 0.278881 0.958949 0 0 0
0.494301 0.328483 -0.691269 0.060422 0.875435 0.479544 0 0 0
0.495877 0.266754 -0.578777 0.060422 0.875435 0.479544 0 0 0
0.663223 0.258860 -0.585453 0.060422 0.875435 0.479544 0 0 0
0.658855 0.135774 -0.549423 0.998097 -0.047078 -0.039817 36 36 36
0.644504 -0.012354 -0.734018 0.998097 -0.047078 -0.039817 49 49 49
0.642928 0.049376 -0.846510 0.998097 -0.047078 -0.039817 85 85 85
-0.372414 0.137917 -0.541727 0.073953 -0.461494 0.884056 15 15 15
-0.367999 0.024378 -0.601366 0.073953 -0.461494 0.884056 4 4 4
-0.200893 0.035240 -0.609675 0.073953 -0.461494 0.884056 0 0 0
-0.367999 0.024378 -0.601366 0.076620 -0.951956 0.296496 4 4 4
-0.371588 -0.014031 -0.723756 0.076620 -0.951956 0.296496 115 115 115
-0.204482 -0.003169 -0.732065 0.076620 -0.951956 0.296496 0 0 0
-0.371588 -0.014031 -0.723756 0.034403 -0.884775 -0.464747 0 0 0
-0.381078 0.045191 -0.837203 0.034403 -0.884775 -0.464747 0 0 0
-0.213972 0.056053 -0.845512 0.034403 -0.884775 -0.464747 1 1 1
-0.381078 0.045191 -0.837203 -0.027966 -0.299305 -0.953748 0 0 0
-0.390911 0.167351 -0.875251 -0.027966 -0.299305 -0.953748 0 0 0
-0.223804 0.178213 -0.883559 -0.027966 -0.299305 -0.953748 18 18 18
-0.390911 0.167351 -0.875251 -0.073954 0.461494 -0.884055 0 0 0
-0.395325 0.280890 -0.815612 -0.073954 0.461494 -0.884055 0 0 0
-0.228219 0.291752 -0.823921 -0.073954 0.461494 -0.884055 6 6 6
-0.395325 0.280890 -0.815612 -0.076620 0.951956 -0.296495 9 9 9
-0.391737 0.319298 -0.693222 -0.076620 0.951956 -0.296495 0 0 0
-0.224630 0.330160 -0.701531 -0.076620 0.951956 -0.296495 56 56 56
-0.367999 0.024378 -0.601366 -0.996668 -0.064784 0.049555 89 89 89
-0.382247 0.260077 -0.579775 -0.996668 -0.064784 0.049555 96 96 96
-0.395325 0.280890 -0.815612 -0.996668 -0.064784 0.049555 112 112 112
-0.382247 0.260077 -0.579775 0.027966 0.299305 0.953748 0 0 0
-0.372414 0.137917 -0.541727 0.027966 0.299305 0.953748 15 15 15
-0.205308 0.148779 -0.550036 0.027966 0.299305 0.953748 0 0 0
-0.391737 0.319298 -0.693222 -0.034403 0.884775 0.464747 0 0 0
-0.382247 0.260077 -0.579775 -0.034403 0.884775 0.464747 0 0 0
-0.215140 0.270939 -0.588084 -0.034403 0.884775 0.464747 0 0 0
-0.205308 0.148779 -0.550036 0.996668 0.064784 -0.049555 66 66 66
-0.204482 -0.003169 -0.732065 0.996668 0.064784 -0.049555 114 114 114
-0.223804 0.178213 -0.883559 0.996668 0.064784 -0.049555 18 18 18
-0.376957 0.137917 0.408315 0.073953 -0.461494 0.884056 0 0 0
-0.372542 0.024378 0.348676 0.073953 -0.461494 0.884056 0 0 0
-0.205436 0.035240 0.340368 0.073953 -0.461494 0.884056 0 0 0
-0.372542 0.024378 0.348676 0.076620 -0.951956 0.296496 255 255 255
-0.376131 -0.014031 0.226286 0.076620 -0.951956 0.296496 255 255 255
-0.209024 -0.003169 0.217978 0.076620 -0.951956 0.296496 183 183 183
-0.376131 -0.014031 0.226286 0.034404 -0.884775 -0.464747 86 86 86
-0.385621 0.045191 0.112840 0.034404 -0.884775 -0.464747 92 92 92
-0.218515 0.056053 0.104531 0.034404 -0.884775 -0.464747 0 0 0
-0.385621 0.045191 0.112840 -0.027966 -0.299304 -0.953748 92 92 92
-0.395453 0.167351 0.074792 -0.027966 -0.299304 -0.953748 0 0 0
-0.228347 0.178213 0.066483 -0.027966 -0.299304 -0.953748 0 0 0
-0.395453 0.167351 0.074792 -0.073953 0.461494 -0.884056 0 0 0
-0.399868 0.280890 0.134431 -0.073953 0.461494 -0.884056 76 76 76
-0.232762 0.291752 0.126122 -0.073953 0.461494 -0.884056 0 0 0
-0.399868 0.280890 0.134431 -0.076620 0.951956 -0.296496 76 76 76
-0.396279 0.319298 0.256821 -0.076620 0.951956 -0.296496 141 141 141
-0.229173 0.330160 0.248512 -0.076620 0.951956 -0.296496 0 0 0
-0.372542 0.024378 0.348676 -0.996668 -0.064784 0.049555 129 129 129
-0.386789 0.260077 0.370267 -0.996668 -0.064784 0.049555 46 46 46
-0.399868 0.280890 0.134431 -0.996668 -0.064784 0.049555 155 155 155
-0.386789 0.260077 0.370267 0.027966 0.299305 0.953748 0 0 0
-0.376957 0.137917 0.408315 0.027966 0.299305 0.953748 0 0 0
-0.209851 0.148779 0.400007 0.027966 0.299305 0.953748 0 0 0
-0.396279 0.319298 0.256821 -0.034403 0.884775 0.464747 0 0 0
-0.386789 0.260077 0.370267 -0.034403 0.884775 0.464747 0 0 0
-0.219683 0.270939 0.361959 -0.034403 0.884775 0.464747 0 0 0
-0.209851 0.148779 0.400007 0.996668 0.064784 -0.049555 154 154 154
-0.209024 -0.003169 0.217978 0.996668 0.064784 -0.049555 119 119 119
-0.218515 0.056053 0.104531 0.996668 0.064784 -0.049555 53 53 53
0.653928 0.135775 0.419791 0.012281 -0.481037 0.876614 0 0 0
0.646174 0.023434 0.358253 -0.034041 -0.959171 0.280770 0 0 0
0.478828 0.031327 0.364929 -0.034041 -0.959171 0.280770 39 39 39
0.639577 -0.012354 0.235195 -0.034041 -0.959171 0.280770 55 55 55
0.639577 -0.012354 0.235195 -0.060423 -0.875435 -0.479544 255 255 255
0.472231 -0.004460 0.241871 -0.060423 -0.875435 -0.479544 255 255 255
0.638001 0.049376 0.122704 -0.060423 -0.875435 -0.479544 255 255 255
0.638001 0.049376 0.122704 -0.051409 -0.278881 -0.958949 255 255 255
0.642370 0.172462 0.086674 -0.012281 0.481038 -0.876614 255 255 255
0.650123 0.284802 0.148211 0.034041 0.959171 -0.280771 40 40 40
0.470655 0.057269 0.129380 -0.998097 0.047079 0.039817 16 16 16
0.472231 -0.004460 0.241871 -0.998097 0.047079 0.039817 1 1 1
0.478828 0.031327 0.364929 -0.998097 0.047079 0.039817 129 129 129
0.475024 0.180355 0.093350 -0.998097 0.047078 0.039817 72 72 72
0.470655 0.057269 0.129380 -0.998097 0.047078 0.039817 16 16 16
0.490950 0.266754 0.390436 -0.998097 0.047077 0.039817 151 151 151
0.489374 0.328483 0.277945 -0.998097 0.047077 0.039817 179 179 179
0.482777 0.292696 0.154887 -0.998097 0.047077 0.039817 47 47 47
0.486582 0.143668 0.426466 -0.998097 0.047078 0.039817 0 0 0
0.475024 0.180355 0.093350 -0.998097 0.047077 0.039817 72 72 72
0.478828 0.031327 0.364929 -0.998097 0.047077 0.039817 129 129 129
0.658296 0.258860 0.383761 0.051409 0.278882 0.958948 139 139 139
0.490950 0.266754 0.390436 0.051409 0.278882 0.958948 49 49 49
0.653928 0.135775 0.419791 0.051409 0.278882 0.958948 0 0 0
0.658296 0.258860 0.383761 0.060422 0.875435 0.479544 138 138 138
0.656721 0.320590 0.271269 0.998097 -0.047078 -0.039816 151 151 151
0.658296 0.258860 0.383761 0.998097 -0.047078 -0.039816 146 146 146
0.653928 0.135775 0.419791 0.998097 -0.047078 -0.039816 80 80 80
0.650123 0.284802 0.148211 0.998097 -0.047078 -0.039817 136 136 136
0.656721 0.320590 0.271269 0.998097 -0.047078 -0.039817 151 151 151
0.653928 0.135775 0.419791 0.998097 -0.047077 -0.039817 80 80 80
0.638001 0.049376 0.122704 0.998097 -0.047077 -0.039817 0 0 0
0.642370 0.172462 0.086674 0.998097 -0.047077 -0.039817 166 166 166
0.646174 0.023434 0.358253 0.998097 -0.047077 -0.039817 119 119 119
0.639577 -0.012354 0.235195 0.998097 -0.047077 -0.039817 45 45 45
0.642370 0.172462 0.086674 0.998097 -0.047078 -0.039817 166 166 166
0.651101 0.023434 -0.610961 0.012282 -0.481038 0.876614 37 37 37
0.658855 0.135774 -0.549423 0.012282 -0.481038 0.876614 0 0 0
0.483755 0.031327 -0.604285 0.012282 -0.481038 0.876614 0 0 0
0.651101 0.023434 -0.610961 -0.034041 -0.959171 0.280771 37 37 37
0.644504 -0.012354 -0.734018 -0.060422 -0.875435 -0.479544 0 0 0
0.642928 0.049376 -0.846510 -0.051409 -0.278881 -0.958949 0 0 0
0.655050 0.284802 -0.821002 -0.012282 0.481037 -0.876614 0 0 0
0.647296 0.172462 -0.882540 -0.012282 0.481037 -0.876614 0 0 0
0.487704 0.292696 -0.814326 -0.012282 0.481037 -0.876614 31 31 31
0.661647 0.320590 -0.697945 0.034041 0.959171 -0.280771 0 0 0
0.477158 -0.004460 -0.727342 -0.998097 0.047078 0.039817 50 50 50
0.479950 0.180355 -0.875864 -0.998097 0.047078 0.039817 0 0 0
0.475582 0.057269 -0.839834 -0.998097 0.047078 0.039817 24 24 24
0.495877 0.266754 -0.578777 -0.998097 0.047077 0.039817 96 96 96
0.494301 0.328483 -0.691269 -0.998097 0.047077 0.039817 0 0 0
0.487704 0.292696 -0.814326 -0.998097 0.047077 0.039817 31 31 31
0.495877 0.266754 -0.578777 -0.998097 0.047078 0.039817 96 96 96
0.663223 0.258860 -0.585453 0.051409 0.278881 0.958949 0 0 0
0.661647 0.320590 -0.697945 0.060422 0.875435 0.479544 0 0 0
0.661647 0.320590 -0.697945 0.998097 -0.047078 -0.039817 70 70 70
0.663223 0.258860 -0.585453 0.998097 -0.047078 -0.039817 76 76 76
0.647296 0.172462 -0.882540 0.998097 -0.047078 -0.039817 86 86 86
0.655050 0.284802 -0.821002 0.998097 -0.047078 -0.039817 105 105 105
0.658855 0.135774 -0.549423 0.998097 -0.047077 -0.039817 36 36 36
0.642928 0.049376 -0.846510 0.998097 -0.047077 -0.039817 85 85 85
0.647296 0.172462 -0.882540 0.998097 -0.047077 -0.039817 86 86 86
0.658855 0.135774 -0.549423 0.998097 -0.047077 -0.039818 36 36 36
0.651101 0.023434 -0.610961 0.998097 -0.047077 -0.039818 37 37 37
0.644504 -0.012354 -0.734018 0.998097 -0.047077 -0.039818 49 49 49
-0.205308 0.148779 -0.550036 0.073953 -0.461494 0.884056 0 0 0
-0.200893 0.035240 -0.609675 0.076620 -0.951956 0.296496 0 0 0
-0.204482 -0.003169 -0.732065 0.034403 -0.884775 -0.464747 114 114 114
-0.213972 0.056053 -0.845512 -0.027966 -0.299305 -0.953748 1 1 1
-0.223804 0.178213 -0.883559 -0.073953 0.461494 -0.884056 18 18 18
-0.390911 0.167351 -0.875251 -0.073953 0.461494 -0.884056 0 0 0
-0.228219 0.291752 -0.823921 -0.073953 0.461494 -0.884056 6 6 6
-0.228219 0.291752 -0.823921 -0.076620 0.951956 -0.296495 86 86 86
-0.381078 0.045191 -0.837203 -0.996668 -0.064784 0.049555 108 108 108
-0.371588 -0.014031 -0.723756 -0.996668 -0.064784 0.049555 115 115 115
-0.390911 0.167351 -0.875251 -0.996668 -0.064784 0.049555 111 111 111
-0.391737 0.319298 -0.693222 -0.996668 -0.064784 0.049555 99 99 99
-0.372414 0.137917 -0.541727 -0.996668 -0.064784 0.049555 111 111 111
-0.215140 0.270939 -0.588084 0.027966 0.299305 0.953748 0 0 0
-0.224630 0.330160 -0.701531 -0.034403 0.884775 0.464747 0 0 0
-0.215140 0.270939 -0.588084 0.996668 0.064784 -0.049555 19 19 19
-0.228219 0.291752 -0.823921 0.996668 0.064784 -0.049555 6 6 6
-0.224630 0.330160 -0.701531 0.996668 0.064784 -0.049555 56 56 56
-0.213972 0.056053 -0.845512 0.996668 0.064784 -0.049555 1 1 1
-0.200893 0.035240 -0.609675 0.996668 0.064784 -0.049555 0 0 0
-0.209851 0.148779 0.400007 0.073953 -0.461494 0.884056 0 0 0
-0.205436 0.035240 0.340368 0.076620 -0.951956 0.296496 255 255 255
-0.209024 -0.003169 0.217978 0.034403 -0.884775 -0.464747 23 23 23
-0.376131 -0.014031 0.226286 0.034403 -0.884775 -0.464747 86 86 86
-0.218515 0.056053 0.104531 0.034403 -0.884775 -0.464747 0 0 0
-0.218515 0.056053 0.104531 -0.027966 -0.299304 -0.953748 0 0 0
-0.228347 0.178213 0.066483 -0.073953 0.461494 -0.884056 0 0 0
-0.232762 0.291752 0.126122 -0.076620 0.951956 -0.296496 0 0 0
-0.385621 0.045191 0.112840 -0.996668 -0.064784 0.049555 92 92 92
-0.376131 -0.014031 0.226286 -0.996668 -0.064784 0.049555 86 86 86
-0.395453 0.167351 0.074792 -0.996668 -0.064784 0.049555 76 76 76
-0.396279 0.319298 0.256821 -0.996668 -0.064784 0.049555 141 141 141
-0.376957 0.137917 0.408315 -0.996668 -0.064784 0.049555 53 53 53
-0.219683 0.270939 0.361959 0.027966 0.299305 0.953748 0 0 0
-0.229173 0.330160 0.248512 -0.034403 0.884775 0.464747 0 0 0
-0.228347 0.178213 0.066483 0.996668 0.064784 -0.049555 132 132 132
-0.219683 0.270939 0.361959 0.996668 0.064784 -0.049555 147 147 147
-0.232762 0.291752 0.126122 0.996668 0.064784 -0.049555 137 137 137
-0.229173 0.330160 0.248512 0.996668 0.064784 -0.049555 148 148 148
-0.205436 0.035240 0.340368 0.996668 0.064784 -0.049555 98 98 98
-0.244672 0.245444 -0.904505 0.006824 -0.999977 0.000000 41 25 4
-0.245954 0.415621 -0.647052 0.862594 0.505897 0.000000 255 179 84
-0.290949 0.492341 -0.642862 0.862594 0.505897 0.000000 255 181 89
-0.245954 0.415621 -0.544488 0.862594 0.505897 0.000000 255 179 84
-0.244672 0.245444 -0.904505 -0.982884 -0.184227 0.000000 41 25 4
-0.290949 0.492341 -0.904506 -0.982884 -0.184227 0.000000 120 75 12
-0.244672 0.245444 -1.000000 -0.982884 -0.184227 0.000000 120 75 12
-0.244672 0.245444 -1.000000 0.000000 -0.000002 -1.000000 255 181 87
-0.290948 0.492341 -1.000001 0.000000 -0.000002 -1.000000 255 179 84
0.532291 0.250746 -1.000000 0.000000 -0.000002 -1.000000 251 176 82
0.532290 0.250746 -0.904505 0.980766 -0.195186 0.000006 159 98 16
0.532291 0.250746 -1.000000 0.980766 -0.195186 0.000006 159 99 17
0.580371 0.492341 -0.904505 0.980766 -0.195186 0.000006 126 79 12
0.580371 0.492342 -0.528484 -0.862594 0.505896 -0.000002 255 179 84
0.580371 0.492341 -0.642862 -0.862594 0.505896 -0.000002 253 177 82
0.535375 0.415621 -0.544487 -0.862594 0.505896 -0.000002 242 167 74
-0.290950 0.492343 -0.221696 0.000001 0.527912 -0.849299 255 179 84
0.580370 0.492343 -0.221695 0.000001 0.527912 -0.849299 255 179 84
-0.245954 0.415622 -0.269384 0.000001 0.527912 -0.849299 255 179 84
0.532290 0.250746 -0.904505 0.961545 -0.191360 0.197009 159 98 16
0.580371 0.492341 -0.904505 0.961545 -0.191360 0.197009 126 79 12
0.532290 0.355207 -0.803039 0.961545 -0.191360 0.197009 154 95 16
-0.290949 0.492341 -0.803040 -0.998660 -0.051745 -0.000000 46 27 5
-0.290949 0.492341 -0.904506 -0.998660 -0.051745 -0.000000 120 75 12
-0.283569 0.349905 -0.803039 -0.998660 -0.051745 -0.000000 41 25 4
-0.283569 0.349905 -0.803039 0.004522 -0.695875 0.718149 41 25 4
-0.244672 0.245444 -0.904505 0.004522 -0.695875 0.718149 41 25 4
0.532290 0.355207 -0.803039 0.004522 -0.695875 0.718149 154 95 16
0.580370 0.492343 -0.221695 -0.862594 0.505897 -0.000003 255 179 84
0.532290 0.355207 -0.642861 0.943679 -0.330863 0.000000 122 76 12
-0.290949 0.492341 -0.803040 -0.998660 -0.051745 -0.000000 122 76 12
-0.283569 0.349905 -0.803039 -0.998660 -0.051745 -0.000000 122 76 12
-0.290949 0.492341 -0.642862 -0.998660 -0.051745 -0.000000 122 76 12
-0.283569 0.349905 -0.803039 0.006498 -0.999979 0.000002 41 25 4
0.532290 0.355207 -0.803039 0.006498 -0.999979 0.000002 154 95 16
-0.283569 0.349905 -0.642862 0.006498 -0.999979 0.000002 108 67 11
-0.245954 0.415621 -0.790687 0.000000 1.000000 -0.000002 255 179 84
0.535376 0.415621 -0.790686 0.000000 1.000000 -0.000002 255 179 84
0.535376 0.415621 -0.881673 0.000000 1.000000 -0.000002 255 179 84
-0.245954 0.415621 -0.647052 0.000000 1.000000 -0.000002 255 179 84
0.535375 0.415621 -0.544487 0.000000 1.000000 -0.000002 255 179 84
0.535375 0.415621 -0.647052 0.000000 1.000000 -0.000002 255 179 84
-0.245954 0.415621 -0.544488 -0.000000 1.000000 -0.000003 255 179 84
-0.245954 0.415622 -0.269384 -0.000000 1.000000 -0.000003 255 179 84
0.535375 0.415622 -0.269384 -0.000000 1.000000 -0.000003 255 179 84
0.535375 0.415621 -0.544487 0.000000 1.000000 -0.000004 255 179 84
-0.245954 0.415621 -0.544488 0.000000 1.000000 -0.000004 255 179 84
0.535375 0.415622 -0.269384 0.000000 1.000000 -0.000004 255 179 84
0.535376 0.415621 -0.967304 -0.000000 1.000000 0.000000 255 179 84
0.535376 0.415621 -0.881673 0.000000 1.000000 -0.000001 255 179 84
-0.245954 0.415621 -0.881673 0.000000 1.000000 -0.000001 255 179 84
-0.245954 0.415621 -0.790687 0.000000 1.000000 -0.000001 255 179 84
-0.245954 0.415621 -0.647052 0.000000 1.000000 -0.000001 255 179 84
-0.245954 0.415621 -0.544488 0.000000 1.000000 -0.000001 255 179 84
0.535375 0.415621 -0.544487 0.000000 1.000000 -0.000001 255 179 84
0.532290 0.250746 -0.528484 0.965545 -0.192157 -0.175495 163 101 17
0.532290 0.355207 -0.642861 0.965545 -0.192157 -0.175495 122 76 12
0.580371 0.492342 -0.528484 0.965545 -0.192157 -0.175495 163 101 17
-0.290949 0.492341 -0.642862 -0.998660 -0.051744 -0.000000 122 76 12
-0.283569 0.349905 -0.642862 -0.998660 -0.051744 -0.000000 122 76 12
-0.290949 0.492342 -0.528485 -0.998660 -0.051744 -0.000000 162 100 17
-0.283569 0.349905 -0.642862 0.004794 -0.737571 -0.675253 8 5 1
0.532290 0.355207 -0.642861 0.004794 -0.737571 -0.675253 0 0 0
-0.244672 0.245445 -0.528484 0.004794 -0.737571 -0.675253 0 0 0
0.532290 0.250748 0.064882 0.980767 -0.195184 0.000001 160 99 16
0.532290 0.250746 -0.528484 0.980767 -0.195184 0.000001 163 101 17
0.580370 0.492343 -0.221695 0.980767 -0.195184 0.000001 122 76 12
-0.290949 0.492342 -0.528485 -0.982884 -0.184227 -0.000001 162 100 17
-0.244672 0.245445 -0.528484 -0.982884 -0.184227 -0.000001 122 76 12
-0.290950 0.492343 -0.221696 -0.982884 -0.184227 -0.000001 127 79 13
-0.244672 0.245446 0.064881 0.006824 -0.999977 0.000002 26 16 2
-0.290950 0.690129 0.099861 0.000000 1.000000 -0.000000 255 179 84
0.580370 0.690129 0.099862 0.000000 1.000000 -0.000000 255 179 84
0.580370 0.690129 -0.148924 0.000000 1.000000 -0.000000 255 179 84
-0.290950 0.690129 0.099861 0.000000 1.000000 -0.000004 255 179 84
-0.290950 0.690130 0.197452 0.000000 1.000000 -0.000004 255 179 84
0.580370 0.690130 0.197452 0.000000 1.000000 -0.000004 255 179 84
0.580370 0.690129 -0.148924 0.000000 1.000000 -0.000001 255 179 84
-0.290950 0.690129 -0.148924 0.000000 1.000000 -0.000001 255 179 84
-0.290950 0.690129 0.099861 0.000000 1.000000 -0.000001 255 179 84
0.532290 0.355209 0.174928 0.900319 -0.315660 0.299639 163 101 17
0.532290 0.250748 0.064882 0.900319 -0.315660 0.299639 160 99 16
0.580370 0.492343 0.174928 0.900319 -0.315660 0.299639 163 101 17
-0.290950 0.492343 -0.221696 -0.982884 -0.184227 -0.000000 127 79 13
-0.244672 0.245446 0.064881 -0.982884 -0.184227 -0.000000 44 27 4
-0.290950 0.492343 0.174927 -0.982884 -0.184227 -0.000000 163 101 17
-0.283569 0.349907 0.174928 0.004707 -0.724433 0.689329 163 101 17
-0.244672 0.245446 0.064881 0.004707 -0.724433 0.689329 44 27 4
0.532290 0.355209 0.174928 0.004707 -0.724433 0.689329 163 101 17
0.580370 0.492343 0.355060 0.000000 1.000000 -0.000002 255 179 84
0.532289 0.355209 0.355061 0.943679 -0.330863 0.000001 154 95 16
-0.290950 0.492343 0.174927 -0.998660 -0.051745 -0.000000 163 101 17
-0.283569 0.349907 0.174928 -0.998660 -0.051745 -0.000000 162 101 17
-0.290950 0.492343 0.355060 -0.998660 -0.051745 -0.000000 157 98 17
-0.283570 0.349907 0.355060 0.006498 -0.999979 0.000002 121 75 12
0.580370 0.492343 0.456867 -0.000000 0.973537 0.228531 122 76 12
0.532289 0.250748 0.456867 0.961670 -0.191385 -0.196373 163 101 17
0.532289 0.355209 0.355061 0.961670 -0.191385 -0.196373 154 95 16
0.580370 0.492343 0.456867 0.961670 -0.191385 -0.196373 163 101 17
-0.290950 0.492343 0.355060 -0.998660 -0.051745 -0.000000 153 95 16
-0.283570 0.349907 0.355060 -0.998660 -0.051745 -0.000000 137 85 15
-0.290950 0.492343 0.456867 -0.998660 -0.051745 -0.000000 120 75 12
-0.283570 0.349907 0.355060 0.004530 -0.697077 -0.716982 112 70 13
0.532289 0.355209 0.355061 0.004530 -0.697077 -0.716982 41 25 4
-0.244673 0.245446 0.456867 0.004530 -0.697077 -0.716982 33 19 5
0.580370 0.451886 0.629214 -0.000001 0.000002 1.000000 163 101 17
-0.290950 0.451886 0.629214 -0.000001 0.000002 1.000000 122 76 12
0.532289 0.289258 0.629215 -0.000001 0.000002 1.000000 135 84 14
0.532289 0.289258 0.629215 0.957049 -0.282949 0.063224 135 84 14
0.532289 0.250748 0.456867 0.957049 -0.282949 0.063224 163 101 17
0.580370 0.451886 0.629214 0.957049 -0.282949 0.063224 163 101 17
-0.290950 0.492343 0.456867 -0.981966 -0.184055 -0.043206 120 75 12
-0.244673 0.245446 0.456867 -0.981966 -0.184055 -0.043206 139 86 15
-0.290950 0.451886 0.629214 -0.981966 -0.184055 -0.043206 163 101 17
-0.244673 0.245446 0.456867 0.006659 -0.975912 0.218062 69 43 7
0.580370 0.492343 0.355060 0.000001 0.623197 0.782065 137 85 13
0.580370 0.690129 -0.148924 0.000001 0.345299 -0.938493 255 180 85
-0.245954 0.415621 -0.544488 0.862594 0.505896 -0.000001 122 76 12
-0.290949 0.492342 -0.528485 0.862594 0.505896 -0.000001 122 76 12
-0.245954 0.415622 -0.269384 0.862594 0.505896 -0.000001 122 76 12
0.535375 0.415621 -0.647052 -0.862593 0.505898 -0.000002 163 101 17
0.580371 0.492341 -0.642862 -0.862593 0.505898 -0.000002 122 76 12
0.535376 0.415621 -0.790686 -0.862593 0.505898 -0.000002 163 101 17
-0.290949 0.492341 -0.904506 0.862594 0.505897 -0.000001 255 180 87
-0.290949 0.492341 -0.803040 0.862594 0.505897 -0.000001 255 180 86
-0.245954 0.415621 -0.881673 0.862594 0.505897 -0.000001 255 179 84
0.580371 0.492341 -0.803039 -0.862594 0.505896 -0.000001 251 175 81
0.535376 0.415621 -0.881673 -0.862594 0.505896 -0.000001 168 105 21
0.535376 0.415621 -0.881673 -0.862594 0.505896 -0.000004 168 105 21
0.580371 0.492341 -0.904505 -0.862594 0.505896 -0.000004 255 179 84
0.535376 0.415621 -0.967304 -0.862594 0.505896 -0.000004 163 101 17
0.580371 0.492341 -1.000000 -0.000001 0.392045 0.919946 248 172 78
-0.290948 0.492341 -1.000001 -0.000001 0.392045 0.919946 255 179 84
0.535376 0.415621 -0.967304 -0.000001 0.392045 0.919946 163 101 17
-0.290948 0.492341 -1.000001 0.862593 0.505899 0.000010 255 183 93
0.580370 0.492343 0.355060 1.000000 0.000000 0.000001 137 85 13
0.580370 0.492343 -0.221695 1.000000 0.000000 -0.000000 122 76 12
0.580370 0.690129 -0.148924 1.000000 0.000000 -0.000000 124 78 14
0.580370 0.690129 0.099862 1.000000 0.000000 -0.000000 128 81 16
0.580370 0.492343 0.174928 1.000000 -0.000000 0.000000 163 101 17
-0.290950 0.690129 0.099861 -1.000000 -0.000000 -0.000000 206 140 58
-0.290950 0.492343 -0.221696 -1.000000 -0.000000 -0.000000 127 79 13
-0.290950 0.492343 0.174927 -1.000000 -0.000000 -0.000001 163 101 17
-0.290950 0.690130 0.197452 -1.000000 -0.000000 -0.000001 243 170 78
-0.290950 0.690129 0.099861 -1.000000 -0.000000 -0.000001 206 140 58
-0.290950 0.690129 -0.148924 -1.000000 0.000000 -0.000000 157 104 32
-0.267836 0.505861 0.344288 -0.000000 0.623198 0.782064 160 99 17
0.551597 0.505861 0.344289 -0.000000 0.623198 0.782064 122 76 12
-0.267837 0.676612 0.208224 -0.000000 0.623198 0.782064 174 117 40
-0.290950 0.690130 0.197452 0.000004 0.623197 0.782065 195 131 51
-0.290950 0.492343 0.355060 0.000004 0.623197 0.782065 156 97 17
-0.267837 0.676612 0.208224 0.000004 0.623197 0.782065 174 117 40
0.580370 0.690130 0.197452 -0.000000 0.623198 0.782064 130 82 16
-0.290950 0.690130 0.197452 -0.000000 0.623198 0.782064 195 131 51
0.551597 0.676612 0.208224 -0.000000 0.623198 0.782064 127 80 15
-0.267836 0.505861 0.344288 -0.000000 0.623194 0.782067 160 99 17
-0.290950 0.492343 0.355060 -0.000000 0.623194 0.782067 156 97 17
0.551597 0.505861 0.344289 -0.000000 0.623194 0.782067 122 76 12
-0.290950 0.492343 -0.221696 0.000000 0.000000 0.000000 255 255 255
-0.290950 0.492343 0.355060 0.000000 0.000000 0.000000 255 255 255
3 0 1 2
3 3 4 5
3 6 7 8
3 9 10 11
3 12 13 14
3 15 16 17
3 18 19 20
3 21 22 23
3 24 25 26
3 27 28 29
3 30 31 32
3 33 34 35
3 36 37 38
3 39 40 41
3 42 43 44
3 45 46 47
3 48 49 50
3 51 52 53
3 54 55 56
3 57 58 59
3 60 61 62
3 63 64 65
3 66 67 68
3 69 70 71
3 72 73 74
3 75 76 77
3 78 79 80
3 81 82 83
3 84 85 86
3 87 88 89
3 90 91 92
3 93 94 95
3 96 97 98
3 99 100 101
3 102 103 104
3 105 106 107
3 108 109 110
3 111 112 113
3 114 115 116
3 117 118 119
3 120 121 122
3 123 124 125
3 126 127 128
3 129 130 131
3 132 133 134
3 135 136 137
3 138 139 140
3 141 142 143
3 144 145 146
3 147 148 149
3 150 151 152
3 153 154 155
3 156 157 158
3 159 160 161
3 162 163 164
3 165 166 167
3 168 169 170
3 171 172 173
3 174 175 176
3 177 178 179
3 180 181 182
3 183 184 185
3 186 187 188
3 189 190 191
3 192 193 194
3 195 191 196
3 197 194 198
3 199 200 201
3 202 203 204
3 205 206 207
3 208 209 210
3 211 212 213
3 214 215 216
3 217 218 219
3 220 221 222
3 223 224 225
3 226 227 228
3 229 230 231
3 232 233 234
3 235 236 237
3 238 239 240
3 241 242 243
3 244 245 246
3 247 248 249
3 250 251 252
3 253 254 255
3 256 257 258
3 259 260 261
3 262 263 264
3 265 266 267
3 268 269 270
3 271 272 273
3 274 275 276
3 277 278 279
3 280 281 282
3 283 284 285
3 286 287 288
3 289 0 2
3 290 291 292
3 293 294 295
3 296 9 11
3 297 12 14
3 298 15 17
3 299 300 301
3 18 302 303
3 304 305 306
3 18 307 19
3 306 308 309
3 310 311 312
3 313 24 26
3 314 315 316
3 27 317 318
3 319 320 321
3 319 322 323
3 324 317 27
3 325 326 327
3 328 202 204
3 329 205 207
3 330 208 210
3 331 332 333
3 334 214 216
3 219 335 217
3 219 336 337
3 338 339 340
3 219 218 341
3 219 337 335
3 342 220 222
3 343 223 225
3 344 345 226
3 346 347 344
3 348 349 350
3 351 352 353
3 346 344 226
3 354 229 231
3 355 232 234
3 356 235 237
3 357 238 240
3 358 359 360
3 361 244 246
3 362 363 247
3 249 364 362
3 248 365 249
3 247 366 248
3 249 362 247
3 367 250 252
3 368 253 255
3 258 369 256
3 258 370 371
3 257 372 258
3 256 373 257
3 258 371 369
3 374 259 261
3 375 262 264
3 376 377 378
3 379 268 270
3 380 271 273
3 381 274 276
3 382 383 277
3 279 384 382
3 278 385 279
3 277 386 278
3 279 382 277
3 387 280 282
3 388 283 285
3 389 390 286
3 389 391 392
3 286 288 389
3 286 393 287
3 389 392 390
3 394 30 32
3 395 396 397
3 398 399 400
3 401 402 403
3 404 405 406
3 407 408 409
3 410 411 412
3 413 414 415
3 416 417 418
3 419 420 421
3 422 60 62
3 423 63 65
3 424 425 426
3 427 428 429
3 430 431 432
3 433 434 435
3 436 437 438
3 431 430 433
3 439 440 441
3 433 435 431
3 72 442 73
3 443 444 445
3 446 447 448
3 449 450 451
3 452 453 454
3 455 456 457
3 458 459 460
3 461 462 463
3 464 90 92
3 465 466 467
3 468 469 470
3 471 472 473
3 474 475 476
3 477 478 479
3 480 481 482
3 483 105 107
3 484 108 110
3 485 486 487
3 488 114 116
3 489 117 119
3 490 491 492
3 493 494 495
3 496 497 498
3 499 500 501
3 502 503 504
3 505 506 507
3 508 138 140
3 509 141 143
3 510 144 146
3 511 512 513
3 156 33 157
3 514 515 516
3 517 518 519
3 155 520 521
3 522 523 524
3 525 526 527
3 528 168 170
3 172 171 529
3 530 531 532
3 532 533 530
3 534 535 174
3 536 537 538
3 534 539 535
3 540 541 542
3 543 544 545
3 546 547 548
3 549 550 551
3 195 189 191
3 197 192 194
3 552 195 196
3 553 197 198
