ply
format ascii 1.0
comment Created by Blender 2.74 (sub 0) - www.blender.org, source file: 'crate.blend'
element vertex 141
property float x
property float y
property float z
property float nx
property float ny
property float nz
property uchar red
property uchar green
property uchar blue
element face 90
property list uchar uint vertex_indices
end_header
0.150000 0.040000 -0.110000 1.000000 0.000000 0.000000 171 108 0
0.150000 0.040000 0.110000 1.000000 0.000000 0.000000 171 108 0
0.150000 0.000000 0.150000 1.000000 0.000000 0.000000 107 68 0
0.150000 0.300000 -0.150000 1.000000 -0.000000 0.000000 108 68 0
0.150000 0.300000 0.150000 1.000000 -0.000000 0.000000 107 68 0
0.150000 0.260000 0.110000 1.000000 -0.000000 0.000000 171 108 0
0.150000 0.040000 -0.110000 -0.000000 1.000000 0.000000 171 108 0
0.140000 0.040000 -0.110000 -0.000000 1.000000 0.000000 171 108 0
0.140000 0.040000 0.110000 -0.000000 1.000000 0.000000 171 108 0
0.150000 0.040000 0.110000 0.000000 0.000000 -1.000000 171 108 0
0.140000 0.040000 0.110000 0.000000 0.000000 -1.000000 171 108 0
0.140000 0.260000 0.110000 0.000000 0.000000 -1.000000 108 69 0
0.110000 0.260000 0.150000 0.000000 -0.000000 1.000000 171 108 0
0.110000 0.040000 0.150000 0.000000 -0.000000 1.000000 171 108 0
0.150000 0.000000 0.150000 0.000000 -0.000000 1.000000 109 69 0
0.150000 0.000000 -0.150000 0.000000 -0.000000 -1.000000 114 73 0
-0.150000 0.000000 -0.150000 0.000000 -0.000000 -1.000000 108 68 0
-0.110000 0.040000 -0.150000 0.000000 -0.000000 -1.000000 171 108 0
-0.110000 0.040000 0.150000 -0.000000 0.000000 1.000000 171 108 0
-0.110000 0.260000 0.150000 -0.000000 0.000000 1.000000 167 105 0
-0.150000 0.000000 0.150000 -0.000000 0.000000 1.000000 108 69 0
-0.150000 0.000000 -0.150000 -1.000000 -0.000000 -0.000000 108 68 0
-0.150000 0.000000 0.150000 -1.000000 -0.000000 -0.000000 126 80 0
-0.150000 0.040000 0.110000 -1.000000 -0.000000 -0.000000 171 108 0
0.110000 0.260000 -0.150000 0.000000 -0.000000 -1.000000 171 108 0
-0.110000 0.260000 -0.150000 0.000000 -0.000000 -1.000000 169 106 0
0.150000 0.300000 -0.150000 0.000000 -0.000000 -1.000000 112 71 0
0.150000 0.300000 0.150000 -0.000000 1.000000 0.000000 113 72 0
0.150000 0.300000 -0.150000 -0.000000 1.000000 0.000000 112 71 0
0.110000 0.300000 0.110000 -0.000000 1.000000 0.000000 126 51 20
-0.150000 0.300000 -0.150000 0.000000 1.000000 0.000000 107 68 0
-0.150000 0.300000 0.150000 0.000000 1.000000 0.000000 142 90 0
-0.110000 0.300000 -0.110000 0.000000 1.000000 0.000000 167 21 62
0.150000 0.260000 0.110000 0.000000 -1.000000 0.000000 171 108 0
0.140000 0.260000 0.110000 0.000000 -1.000000 0.000000 108 69 0
0.140000 0.260000 -0.110000 0.000000 -1.000000 0.000000 108 68 0
0.150000 0.260000 -0.110000 0.000000 0.000000 1.000000 171 108 0
0.140000 0.260000 -0.110000 0.000000 0.000000 1.000000 108 68 0
0.140000 0.040000 -0.110000 0.000000 0.000000 1.000000 172 109 1
0.140000 0.040000 0.110000 1.000000 0.000000 -0.000000 171 108 0
0.140000 0.040000 -0.110000 1.000000 0.000000 -0.000000 171 108 0
0.140000 0.260000 -0.110000 1.000000 0.000000 -0.000000 108 68 0
-0.110000 0.260000 0.150000 0.000000 -1.000000 0.000000 167 105 0
-0.110000 0.260000 0.140000 0.000000 -1.000000 0.000000 111 71 0
0.110000 0.260000 0.140000 0.000000 -1.000000 0.000000 114 72 0
0.110000 0.260000 0.150000 -1.000000 0.000000 0.000000 171 108 0
0.110000 0.260000 0.140000 -1.000000 0.000000 0.000000 114 72 0
0.110000 0.040000 0.140000 -1.000000 0.000000 0.000000 171 108 0
-0.110000 0.040000 -0.150000 0.000000 1.000000 0.000000 171 108 0
-0.110000 0.040000 -0.140000 0.000000 1.000000 0.000000 171 108 0
0.110000 0.040000 -0.140000 0.000000 1.000000 0.000000 171 108 0
-0.150000 0.260000 -0.110000 -1.000000 -0.000000 -0.000000 166 105 0
-0.150000 0.260000 0.110000 -1.000000 -0.000000 -0.000000 171 108 0
-0.150000 0.300000 -0.150000 -1.000000 -0.000000 -0.000000 107 68 0
-0.110000 0.260000 -0.150000 1.000000 -0.000000 0.000000 169 106 0
-0.110000 0.260000 -0.140000 1.000000 -0.000000 0.000000 107 68 0
-0.110000 0.040000 -0.140000 1.000000 -0.000000 0.000000 171 108 0
0.110000 0.040000 0.150000 0.000000 1.000000 0.000000 171 108 0
0.110000 0.040000 0.140000 0.000000 1.000000 0.000000 171 108 0
-0.110000 0.040000 0.140000 0.000000 1.000000 0.000000 171 108 0
-0.110000 0.040000 0.150000 1.000000 0.000000 -0.000000 171 108 0
-0.110000 0.040000 0.140000 1.000000 0.000000 -0.000000 171 108 0
-0.110000 0.260000 0.140000 1.000000 0.000000 -0.000000 111 71 0
-0.150000 0.040000 0.110000 0.000000 1.000000 -0.000000 171 108 0
-0.140000 0.040000 0.110000 0.000000 1.000000 -0.000000 171 108 0
-0.140000 0.040000 -0.110000 0.000000 1.000000 -0.000000 171 108 0
-0.150000 0.260000 0.110000 0.000000 0.000000 -1.000000 171 108 0
-0.140000 0.260000 0.110000 0.000000 0.000000 -1.000000 115 73 0
-0.140000 0.040000 0.110000 0.000000 0.000000 -1.000000 171 108 0
0.110000 0.040000 -0.150000 -1.000000 -0.000000 -0.000000 171 108 0
0.110000 0.040000 -0.140000 -1.000000 -0.000000 -0.000000 171 108 0
0.110000 0.260000 -0.140000 -1.000000 -0.000000 -0.000000 107 68 0
0.110000 0.260000 -0.150000 0.000000 -1.000000 0.000000 171 108 0
0.110000 0.260000 -0.140000 0.000000 -1.000000 0.000000 107 68 0
-0.110000 0.260000 -0.140000 0.000000 -1.000000 0.000000 107 68 0
-0.110000 0.040000 0.140000 0.000000 0.000000 1.000000 171 108 0
0.110000 0.040000 0.140000 0.000000 0.000000 1.000000 171 108 0
0.110000 0.260000 0.140000 0.000000 0.000000 1.000000 114 72 0
0.110000 0.040000 -0.140000 0.000000 0.000000 -1.000000 171 108 0
-0.110000 0.040000 -0.140000 0.000000 0.000000 -1.000000 171 108 0
-0.110000 0.260000 -0.140000 0.000000 0.000000 -1.000000 107 68 0
-0.150000 0.040000 -0.110000 0.000000 0.000000 1.000000 171 108 0
-0.140000 0.040000 -0.110000 0.000000 0.000000 1.000000 171 108 0
-0.140000 0.260000 -0.110000 0.000000 0.000000 1.000000 107 68 0
-0.150000 0.260000 -0.110000 -0.000000 -1.000000 -0.000000 166 105 0
-0.140000 0.260000 -0.110000 -0.000000 -1.000000 -0.000000 107 68 0
-0.140000 0.260000 0.110000 -0.000000 -1.000000 -0.000000 115 73 0
-0.140000 0.040000 -0.110000 -1.000000 -0.000000 -0.000000 171 108 0
-0.140000 0.040000 0.110000 -1.000000 -0.000000 -0.000000 171 108 0
-0.140000 0.260000 0.110000 -1.000000 -0.000000 -0.000000 115 73 0
0.110000 0.300000 -0.110000 -1.000000 0.000000 0.000000 162 16 64
0.110000 0.290000 -0.110000 -1.000000 0.000000 0.000000 159 16 63
0.110000 0.290000 0.110000 -1.000000 0.000000 0.000000 151 34 45
0.110000 0.300000 0.110000 0.000000 0.000000 -1.000000 126 52 20
0.110000 0.290000 0.110000 0.000000 0.000000 -1.000000 143 29 45
-0.110000 0.290000 0.110000 0.000000 0.000000 -1.000000 171 57 38
-0.110000 0.290000 -0.110000 0.000000 1.000000 0.000000 145 40 39
-0.110000 0.290000 0.110000 0.000000 1.000000 0.000000 152 45 38
0.110000 0.290000 0.110000 0.000000 1.000000 0.000000 151 34 45
-0.110000 0.300000 -0.110000 0.000000 -0.000000 1.000000 153 97 0
-0.110000 0.290000 -0.110000 0.000000 -0.000000 1.000000 121 77 0
0.110000 0.290000 -0.110000 0.000000 -0.000000 1.000000 115 73 0
-0.110000 0.300000 0.110000 1.000000 0.000000 0.000000 144 91 0
-0.110000 0.290000 0.110000 1.000000 0.000000 0.000000 138 87 0
-0.110000 0.290000 -0.110000 1.000000 0.000000 0.000000 123 78 0
0.150000 0.000000 -0.150000 1.000000 0.000000 -0.000000 114 73 0
0.150000 0.260000 -0.110000 1.000000 0.000000 0.000000 171 108 0
0.150000 0.040000 0.110000 -0.000000 1.000000 0.000000 171 108 0
0.150000 0.260000 0.110000 0.000000 0.000000 -1.000000 171 108 0
-0.150000 0.300000 0.150000 0.000000 0.000000 1.000000 142 90 0
0.150000 0.300000 0.150000 0.000000 0.000000 1.000000 113 72 0
-0.150000 0.300000 -0.150000 0.000000 0.000000 -1.000000 115 73 0
0.110000 0.040000 -0.150000 0.000000 0.000000 -1.000000 171 108 0
-0.150000 0.300000 0.150000 -1.000000 0.000000 0.000000 112 71 0
-0.150000 0.040000 -0.110000 -1.000000 0.000000 0.000000 171 108 0
-0.110000 0.300000 0.110000 0.000000 1.000000 0.000000 156 42 42
0.110000 0.300000 -0.110000 0.000000 1.000000 0.000000 162 16 64
0.150000 0.300000 -0.150000 0.000000 1.000000 0.000000 107 68 0
0.150000 0.260000 -0.110000 0.000000 -1.000000 0.000000 171 108 0
0.150000 0.040000 -0.110000 -0.000000 0.000000 1.000000 172 109 2
0.140000 0.260000 0.110000 1.000000 0.000000 -0.000000 108 69 0
0.110000 0.260000 0.150000 0.000000 -1.000000 0.000000 171 108 0
0.110000 0.040000 0.150000 -1.000000 0.000000 0.000000 171 108 0
0.110000 0.040000 -0.150000 -0.000000 1.000000 0.000000 171 108 0
-0.110000 0.040000 -0.150000 1.000000 0.000000 0.000000 171 108 0
-0.110000 0.040000 0.150000 0.000000 1.000000 -0.000000 171 108 0
-0.110000 0.260000 0.150000 1.000000 0.000000 -0.000000 167 105 0
-0.150000 0.040000 -0.110000 0.000000 1.000000 0.000000 171 108 0
-0.150000 0.040000 0.110000 -0.000000 -0.000000 -1.000000 171 108 0
0.110000 0.260000 -0.150000 -1.000000 0.000000 -0.000000 171 108 0
-0.110000 0.260000 -0.150000 -0.000000 -1.000000 -0.000000 169 106 0
-0.110000 0.260000 0.140000 0.000000 -0.000000 1.000000 111 71 0
0.110000 0.260000 -0.140000 0.000000 0.000000 -1.000000 107 68 0
-0.150000 0.260000 -0.110000 0.000000 -0.000000 1.000000 166 105 0
-0.150000 0.260000 0.110000 -0.000000 -1.000000 0.000000 171 108 0
-0.140000 0.260000 -0.110000 -1.000000 0.000000 -0.000000 107 68 0
0.110000 0.300000 0.110000 -1.000000 0.000000 0.000000 158 72 20
-0.110000 0.300000 0.110000 0.000000 0.000000 -1.000000 171 51 42
0.110000 0.290000 -0.110000 -0.000000 1.000000 0.000000 159 16 63
0.110000 0.300000 -0.110000 0.000000 -0.000000 1.000000 125 79 0
-0.110000 0.300000 -0.110000 1.000000 -0.000000 0.000000 154 98 0
3 0 1 2
3 3 4 5
3 6 7 8
3 9 10 11
3 12 13 14
3 15 16 17
3 18 19 20
3 21 22 23
3 24 25 26
3 27 28 29
3 30 31 32
3 33 34 35
3 36 37 38
3 39 40 41
3 42 43 44
3 45 46 47
3 48 49 50
3 51 52 53
3 54 55 56
3 57 58 59
3 60 61 62
3 63 64 65
3 66 67 68
3 69 70 71
3 72 73 74
3 75 76 77
3 78 79 80
3 81 82 83
3 84 85 86
3 87 88 89
3 90 91 92
3 93 94 95
3 96 97 98
3 99 100 101
3 102 103 104
3 5 4 2
3 2 105 0
3 1 5 2
3 106 0 105
3 3 5 106
3 106 105 3
3 107 6 8
3 108 9 11
3 109 19 12
3 12 14 110
3 110 109 12
3 111 25 17
3 17 112 15
3 16 111 17
3 20 14 13
3 19 109 20
3 20 13 18
3 113 52 23
3 23 114 21
3 22 113 23
3 26 112 24
3 25 111 26
3 26 15 112
3 115 31 27
3 28 116 29
3 29 115 27
3 32 116 117
3 31 115 32
3 32 117 30
3 118 33 35
3 119 36 38
3 120 39 41
3 121 42 44
3 122 45 47
3 123 48 50
3 21 114 51
3 52 113 53
3 53 21 51
3 124 54 56
3 125 57 59
3 126 60 62
3 127 63 65
3 128 66 68
3 129 69 71
3 130 72 74
3 131 75 77
3 132 78 80
3 133 81 83
3 134 84 86
3 135 87 89
3 136 90 92
3 137 93 95
3 138 96 98
3 139 99 101
3 140 102 104
