ply
format ascii 1.0
comment Created by Blender 2.74 (sub 0) - www.blender.org, source file: 'crate.blend'
element vertex 125
property float x
property float y
property float z
property float nx
property float ny
property float nz
property uchar red
property uchar green
property uchar blue
element face 82
property list uchar uint vertex_indices
end_header
0.150000 0.040000 -0.110000 1.000000 0.000000 0.000000 171 108 0
0.150000 0.040000 0.110000 1.000000 0.000000 0.000000 171 108 0
0.150000 0.000000 0.150000 1.000000 0.000000 0.000000 107 68 0
0.150000 0.300000 -0.150000 1.000000 -0.000000 0.000000 108 68 0
0.150000 0.300000 0.150000 1.000000 -0.000000 0.000000 107 68 0
0.150000 0.260000 0.110000 1.000000 -0.000000 0.000000 171 108 0
0.150000 0.040000 -0.110000 -0.000000 1.000000 0.000000 171 108 0
0.140000 0.040000 -0.110000 -0.000000 1.000000 0.000000 171 108 0
0.140000 0.040000 0.110000 -0.000000 1.000000 0.000000 171 108 0
0.150000 0.040000 0.110000 0.000000 0.000000 -1.000000 171 108 0
0.140000 0.040000 0.110000 0.000000 0.000000 -1.000000 171 108 0
0.140000 0.260000 0.110000 0.000000 0.000000 -1.000000 108 69 0
0.110000 0.260000 0.150000 0.000000 -0.000000 1.000000 171 108 0
0.110000 0.040000 0.150000 0.000000 -0.000000 1.000000 171 108 0
0.150000 0.000000 0.150000 0.000000 -0.000000 1.000000 109 69 0
0.150000 0.000000 -0.150000 0.000000 -0.000000 -1.000000 114 73 0
-0.150000 0.000000 -0.150000 0.000000 -0.000000 -1.000000 108 68 0
-0.110000 0.040000 -0.150000 0.000000 -0.000000 -1.000000 171 108 0
-0.110000 0.040000 0.150000 -0.000000 0.000000 1.000000 171 108 0
-0.110000 0.260000 0.150000 -0.000000 0.000000 1.000000 167 105 0
-0.150000 0.000000 0.150000 -0.000000 0.000000 1.000000 108 69 0
-0.150000 0.000000 -0.150000 -1.000000 -0.000000 -0.000000 108 68 0
-0.150000 0.000000 0.150000 -1.000000 -0.000000 -0.000000 126 80 0
-0.150000 0.040000 0.110000 -1.000000 -0.000000 -0.000000 171 108 0
0.110000 0.260000 -0.150000 0.000000 -0.000000 -1.000000 171 108 0
-0.110000 0.260000 -0.150000 0.000000 -0.000000 -1.000000 169 106 0
0.150000 0.300000 -0.150000 0.000000 -0.000000 -1.000000 112 71 0
0.150000 0.300000 0.150000 -0.000000 1.000000 0.000000 113 72 0
0.150000 0.300000 -0.150000 -0.000000 1.000000 0.000000 112 71 0
0.110000 0.300000 0.110000 -0.000000 1.000000 0.000000 110 69 0
-0.150000 0.300000 -0.150000 0.000000 1.000000 0.000000 107 68 0
-0.150000 0.300000 0.150000 0.000000 1.000000 0.000000 142 90 0
-0.110000 0.300000 -0.110000 0.000000 1.000000 0.000000 153 97 0
0.150000 0.260000 -0.110000 0.000000 0.000000 1.000000 171 108 0
0.140000 0.260000 -0.110000 0.000000 0.000000 1.000000 108 68 0
0.140000 0.040000 -0.110000 0.000000 0.000000 1.000000 172 109 1
0.140000 0.040000 0.110000 1.000000 0.000000 -0.000000 171 108 0
0.140000 0.040000 -0.110000 1.000000 0.000000 -0.000000 171 108 0
0.140000 0.260000 -0.110000 1.000000 0.000000 -0.000000 108 68 0
0.110000 0.260000 0.150000 -1.000000 0.000000 0.000000 171 108 0
0.110000 0.260000 0.140000 -1.000000 0.000000 0.000000 114 72 0
0.110000 0.040000 0.140000 -1.000000 0.000000 0.000000 171 108 0
-0.110000 0.040000 -0.150000 0.000000 1.000000 0.000000 171 108 0
-0.110000 0.040000 -0.140000 0.000000 1.000000 0.000000 171 108 0
0.110000 0.040000 -0.140000 0.000000 1.000000 0.000000 171 108 0
-0.150000 0.260000 -0.110000 -1.000000 -0.000000 -0.000000 166 105 0
-0.150000 0.260000 0.110000 -1.000000 -0.000000 -0.000000 171 108 0
-0.150000 0.300000 -0.150000 -1.000000 -0.000000 -0.000000 107 68 0
-0.110000 0.260000 -0.150000 1.000000 -0.000000 0.000000 169 106 0
-0.110000 0.260000 -0.140000 1.000000 -0.000000 0.000000 107 68 0
-0.110000 0.040000 -0.140000 1.000000 -0.000000 0.000000 171 108 0
0.110000 0.040000 0.150000 0.000000 1.000000 0.000000 171 108 0
0.110000 0.040000 0.140000 0.000000 1.000000 0.000000 171 108 0
-0.110000 0.040000 0.140000 0.000000 1.000000 0.000000 171 108 0
-0.110000 0.040000 0.150000 1.000000 0.000000 -0.000000 171 108 0
-0.110000 0.040000 0.140000 1.000000 0.000000 -0.000000 171 108 0
-0.110000 0.260000 0.140000 1.000000 0.000000 -0.000000 111 71 0
-0.150000 0.040000 0.110000 0.000000 1.000000 -0.000000 171 108 0
-0.140000 0.040000 0.110000 0.000000 1.000000 -0.000000 171 108 0
-0.140000 0.040000 -0.110000 0.000000 1.000000 -0.000000 171 108 0
-0.150000 0.260000 0.110000 0.000000 0.000000 -1.000000 171 108 0
-0.140000 0.260000 0.110000 0.000000 0.000000 -1.000000 115 73 0
-0.140000 0.040000 0.110000 0.000000 0.000000 -1.000000 171 108 0
0.110000 0.040000 -0.150000 -1.000000 -0.000000 -0.000000 171 108 0
0.110000 0.040000 -0.140000 -1.000000 -0.000000 -0.000000 171 108 0
0.110000 0.260000 -0.140000 -1.000000 -0.000000 -0.000000 107 68 0
-0.110000 0.040000 0.140000 0.000000 0.000000 1.000000 171 108 0
0.110000 0.040000 0.140000 0.000000 0.000000 1.000000 171 108 0
0.110000 0.260000 0.140000 0.000000 0.000000 1.000000 114 72 0
0.110000 0.040000 -0.140000 0.000000 0.000000 -1.000000 171 108 0
-0.110000 0.040000 -0.140000 0.000000 0.000000 -1.000000 171 108 0
-0.110000 0.260000 -0.140000 0.000000 0.000000 -1.000000 107 68 0
-0.150000 0.040000 -0.110000 0.000000 0.000000 1.000000 171 108 0
-0.140000 0.040000 -0.110000 0.000000 0.000000 1.000000 171 108 0
-0.140000 0.260000 -0.110000 0.000000 0.000000 1.000000 107 68 0
-0.140000 0.040000 -0.110000 -1.000000 -0.000000 -0.000000 171 108 0
-0.140000 0.040000 0.110000 -1.000000 -0.000000 -0.000000 171 108 0
-0.140000 0.260000 0.110000 -1.000000 -0.000000 -0.000000 115 73 0
0.110000 0.300000 -0.110000 -1.000000 0.000000 0.000000 125 79 0
0.110000 0.290000 -0.110000 -1.000000 0.000000 0.000000 115 73 0
0.110000 0.290000 0.110000 -1.000000 0.000000 0.000000 125 79 0
0.110000 0.300000 0.110000 0.000000 0.000000 -1.000000 111 70 0
0.110000 0.290000 0.110000 0.000000 0.000000 -1.000000 107 68 0
-0.110000 0.290000 0.110000 0.000000 0.000000 -1.000000 171 108 0
-0.110000 0.290000 -0.110000 0.000000 1.000000 0.000000 121 77 0
-0.110000 0.290000 0.110000 0.000000 1.000000 0.000000 136 86 0
0.110000 0.290000 0.110000 0.000000 1.000000 0.000000 125 79 0
-0.110000 0.300000 -0.110000 0.000000 -0.000000 1.000000 153 97 0
-0.110000 0.290000 -0.110000 0.000000 -0.000000 1.000000 121 77 0
0.110000 0.290000 -0.110000 0.000000 -0.000000 1.000000 115 73 0
-0.110000 0.300000 0.110000 1.000000 0.000000 0.000000 144 91 0
-0.110000 0.290000 0.110000 1.000000 0.000000 0.000000 138 87 0
-0.110000 0.290000 -0.110000 1.000000 0.000000 0.000000 123 78 0
0.150000 0.000000 -0.150000 1.000000 0.000000 -0.000000 114 73 0
0.150000 0.260000 -0.110000 1.000000 0.000000 0.000000 171 108 0
0.150000 0.040000 0.110000 -0.000000 1.000000 0.000000 171 108 0
0.150000 0.260000 0.110000 0.000000 0.000000 -1.000000 171 108 0
-0.150000 0.300000 0.150000 0.000000 0.000000 1.000000 142 90 0
0.150000 0.300000 0.150000 0.000000 0.000000 1.000000 113 72 0
-0.150000 0.300000 -0.150000 0.000000 0.000000 -1.000000 115 73 0
0.110000 0.040000 -0.150000 0.000000 0.000000 -1.000000 171 108 0
-0.150000 0.300000 0.150000 -1.000000 0.000000 0.000000 112 71 0
-0.150000 0.040000 -0.110000 -1.000000 0.000000 0.000000 171 108 0
-0.110000 0.300000 0.110000 0.000000 1.000000 0.000000 140 88 0
0.110000 0.300000 -0.110000 0.000000 1.000000 0.000000 125 79 0
0.150000 0.300000 -0.150000 0.000000 1.000000 0.000000 107 68 0
0.150000 0.040000 -0.110000 -0.000000 0.000000 1.000000 172 109 2
0.140000 0.260000 0.110000 1.000000 0.000000 -0.000000 108 69 0
0.110000 0.040000 0.150000 -1.000000 0.000000 0.000000 171 108 0
0.110000 0.040000 -0.150000 -0.000000 1.000000 0.000000 171 108 0
-0.110000 0.040000 -0.150000 1.000000 0.000000 0.000000 171 108 0
-0.110000 0.040000 0.150000 0.000000 1.000000 -0.000000 171 108 0
-0.110000 0.260000 0.150000 1.000000 0.000000 -0.000000 167 105 0
-0.150000 0.040000 -0.110000 0.000000 1.000000 0.000000 171 108 0
-0.150000 0.040000 0.110000 -0.000000 -0.000000 -1.000000 171 108 0
0.110000 0.260000 -0.150000 -1.000000 0.000000 -0.000000 171 108 0
-0.110000 0.260000 0.140000 0.000000 -0.000000 1.000000 111 71 0
0.110000 0.260000 -0.140000 0.000000 0.000000 -1.000000 107 68 0
-0.150000 0.260000 -0.110000 0.000000 -0.000000 1.000000 166 105 0
-0.140000 0.260000 -0.110000 -1.000000 0.000000 -0.000000 107 68 0
0.110000 0.300000 0.110000 -1.000000 0.000000 0.000000 153 97 0
-0.110000 0.300000 0.110000 0.000000 0.000000 -1.000000 171 108 0
0.110000 0.290000 -0.110000 -0.000000 1.000000 0.000000 115 73 0
0.110000 0.300000 -0.110000 0.000000 -0.000000 1.000000 125 79 0
-0.110000 0.300000 -0.110000 1.000000 -0.000000 0.000000 154 98 0
3 0 1 2
3 3 4 5
3 6 7 8
3 9 10 11
3 12 13 14
3 15 16 17
3 18 19 20
3 21 22 23
3 24 25 26
3 27 28 29
3 30 31 32
3 33 34 35
3 36 37 38
3 39 40 41
3 42 43 44
3 45 46 47
3 48 49 50
3 51 52 53
3 54 55 56
3 57 58 59
3 60 61 62
3 63 64 65
3 66 67 68
3 69 70 71
3 72 73 74
3 75 76 77
3 78 79 80
3 81 82 83
3 84 85 86
3 87 88 89
3 90 91 92
3 5 4 2
3 2 93 0
3 1 5 2
3 94 0 93
3 3 5 94
3 94 93 3
3 95 6 8
3 96 9 11
3 97 19 12
3 12 14 98
3 98 97 12
3 99 25 17
3 17 100 15
3 16 99 17
3 20 14 13
3 19 97 20
3 20 13 18
3 101 46 23
3 23 102 21
3 22 101 23
3 26 100 24
3 25 99 26
3 26 15 100
3 103 31 27
3 28 104 29
3 29 103 27
3 32 104 105
3 31 103 32
3 32 105 30
3 106 33 35
3 107 36 38
3 108 39 41
3 109 42 44
3 21 102 45
3 46 101 47
3 47 21 45
3 110 48 50
3 111 51 53
3 112 54 56
3 113 57 59
3 114 60 62
3 115 63 65
3 116 66 68
3 117 69 71
3 118 72 74
3 119 75 77
3 120 78 80
3 121 81 83
3 122 84 86
3 123 87 89
3 124 90 92
