ply
format ascii 1.0
comment Created by Blender 2.74 (sub 0) - www.blender.org, source file: 'grass.blend'
element vertex 54
property float x
property float y
property float z
property float nx
property float ny
property float nz
property uchar red
property uchar green
property uchar blue
element face 18
property list uchar uint vertex_indices
end_header
-0.018555 0.000000 -0.087097 -0.821068 0.318009 0.474044 113 166 48
0.018033 0.239930 -0.184681 -0.821068 0.318009 0.474044 144 212 61
-0.051298 0.000000 -0.143810 -0.821068 0.318009 0.474044 113 166 48
0.014189 0.000000 -0.143810 0.863832 0.071118 0.498734 113 166 48
0.018033 0.239930 -0.184681 0.863832 0.071118 0.498734 144 212 61
-0.018555 0.000000 -0.087097 0.863832 0.071118 0.498734 113 166 48
-0.051298 0.000000 -0.143810 0.000000 -0.167927 -0.985799 113 166 48
0.018033 0.239930 -0.184681 0.000000 -0.167927 -0.985799 144 212 61
0.014189 0.000000 -0.143810 0.000000 -0.167927 -0.985799 113 166 48
-0.070474 0.000000 -0.052801 -0.856891 -0.144858 0.494726 113 166 48
-0.141231 0.238183 -0.105615 -0.856891 -0.144858 0.494726 144 212 61
-0.104035 0.000000 -0.110931 -0.856891 -0.144858 0.494726 113 166 48
-0.036912 0.000000 -0.110931 0.812703 0.345472 0.469215 113 166 48
-0.141231 0.238183 -0.105615 0.812703 0.345472 0.469215 144 212 61
-0.070474 0.000000 -0.052801 0.812703 0.345472 0.469215 113 166 48
-0.104035 0.000000 -0.110931 0.000000 0.022314 -0.999751 113 166 48
-0.141231 0.238183 -0.105615 0.000000 0.022314 -0.999751 133 195 56
-0.036912 0.000000 -0.110931 0.000000 0.022314 -0.999751 113 166 48
0.003870 0.000000 0.014203 -0.831672 0.278860 0.480166 113 166 48
0.062475 0.300000 -0.058519 -0.831672 0.278860 0.480166 144 211 61
-0.053636 0.000000 -0.085401 -0.831672 0.278860 0.480166 113 166 48
0.061377 0.000000 -0.085401 0.865031 -0.047918 0.499426 113 166 48
0.062475 0.300000 -0.058519 0.865031 -0.047918 0.499426 144 212 61
0.003870 0.000000 0.014203 0.865031 -0.047918 0.499426 113 166 48
-0.053636 0.000000 -0.085401 0.000000 0.089250 -0.996009 113 166 48
0.062475 0.300000 -0.058519 0.000000 0.089250 -0.996009 144 212 61
0.061377 0.000000 -0.085401 0.000000 0.089250 -0.996009 113 166 48
0.067841 0.000000 0.059643 -0.862733 0.087121 0.498099 113 166 48
0.171301 0.237436 0.197312 -0.862733 0.087121 0.498099 143 211 61
0.029909 0.000000 -0.006057 -0.862733 0.087121 0.498099 113 166 48
0.105773 0.000000 -0.006057 0.720376 -0.555047 0.415910 113 166 48
0.171301 0.237436 0.197312 0.720376 -0.555047 0.415910 129 190 55
0.067841 0.000000 0.059643 0.720376 -0.555047 0.415910 113 166 48
0.029909 0.000000 -0.006057 0.000000 0.650519 -0.759490 113 166 48
0.171301 0.237436 0.197312 0.000000 0.650519 -0.759490 131 194 55
0.105773 0.000000 -0.006057 0.000000 0.650519 -0.759490 113 166 48
-0.015814 0.000000 0.074818 -0.251261 -0.239899 0.937719 206 255 107
-0.049382 0.207519 0.118914 -0.251261 -0.239899 0.937719 144 212 61
-0.126908 0.000000 0.045051 -0.251261 -0.239899 0.937719 206 255 107
-0.045582 0.000000 -0.036276 0.945070 0.206681 -0.253231 113 166 48
-0.049382 0.207519 0.118914 0.945070 0.206681 -0.253231 144 212 61
-0.015814 0.000000 0.074818 0.945070 0.206681 -0.253231 113 166 48
-0.126908 0.000000 0.045051 -0.628421 0.458448 -0.628421 113 166 48
-0.049382 0.207519 0.118914 -0.628421 0.458448 -0.628421 144 212 61
-0.045582 0.000000 -0.036276 -0.628421 0.458448 -0.628421 113 166 48
0.107044 0.000000 -0.020419 -0.634933 0.680059 0.366578 113 166 48
0.288633 0.229702 -0.132029 -0.634933 0.680059 0.366578 143 211 60
0.049538 0.000000 -0.120023 -0.634933 0.680059 0.366578 113 166 48
0.164551 0.000000 -0.120023 0.792193 -0.404029 0.457373 113 166 48
0.288633 0.229702 -0.132029 0.792193 -0.404029 0.457373 126 184 53
0.107044 0.000000 -0.020419 0.792193 -0.404029 0.457373 113 166 48
0.049538 0.000000 -0.120023 0.000000 -0.052196 -0.998637 113 166 48
0.288633 0.229702 -0.132029 0.000000 -0.052196 -0.998637 126 184 53
0.164551 0.000000 -0.120023 0.000000 -0.052196 -0.998637 113 166 48
3 0 1 2
3 3 4 5
3 6 7 8
3 9 10 11
3 12 13 14
3 15 16 17
3 18 19 20
3 21 22 23
3 24 25 26
3 27 28 29
3 30 31 32
3 33 34 35
3 36 37 38
3 39 40 41
3 42 43 44
3 45 46 47
3 48 49 50
3 51 52 53
