ply
format ascii 1.0
comment Created by Blender 2.74 (sub 0) - www.blender.org, source file: 'mushroom.blend'
element vertex 52
property float x
property float y
property float z
property float nx
property float ny
property float nz
property uchar red
property uchar green
property uchar blue
element face 22
property list uchar uint vertex_indices
end_header
-0.000755 0.100237 0.085260 -0.509799 0.492047 0.705688 255 73 66
-0.071127 0.102065 0.033147 -0.509799 0.492047 0.705688 255 73 66
-0.094011 0.071686 0.037797 -0.509799 0.492047 0.705688 255 73 66
-0.094011 0.071686 0.037797 -0.797048 0.569757 -0.200228 255 73 66
-0.071127 0.102065 0.033147 -0.797048 0.569757 -0.200228 255 73 66
-0.043447 0.111786 -0.049380 -0.797048 0.569757 -0.200228 255 73 66
-0.043447 0.111786 -0.049380 -0.022203 0.663278 -0.748044 255 73 66
0.044033 0.115965 -0.048271 -0.022203 0.663278 -0.748044 255 73 66
0.060554 0.090342 -0.071481 -0.022203 0.663278 -0.748044 255 73 66
0.095968 0.080761 0.040205 0.442576 0.537540 0.717758 255 73 66
0.070418 0.108827 0.034941 0.442576 0.537540 0.717758 255 73 66
-0.000755 0.100237 0.085260 0.442576 0.537540 0.717758 255 73 66
0.044033 0.115965 -0.048271 0.743927 0.643367 -0.180697 255 73 66
0.070418 0.108827 0.034941 0.743927 0.643367 -0.180697 255 73 66
0.095968 0.080761 0.040205 0.743927 0.643367 -0.180697 255 73 66
-0.000755 0.100237 0.085260 0.137872 0.925412 0.352993 255 73 66
0.070418 0.108827 0.034941 0.137872 0.925412 0.352993 255 73 66
-0.001158 0.127796 0.013168 0.137872 0.925412 0.352993 255 73 66
0.070418 0.108827 0.034941 0.255642 0.966770 0.001870 255 73 66
0.044033 0.115965 -0.048271 0.255642 0.966770 0.001870 255 73 66
-0.001158 0.127796 0.013168 0.255642 0.966770 0.001870 255 73 66
0.044033 0.115965 -0.048271 -0.043767 0.974551 -0.219853 255 73 66
-0.043447 0.111786 -0.049380 -0.043767 0.974551 -0.219853 255 73 66
-0.001158 0.127796 0.013168 -0.043767 0.974551 -0.219853 255 73 66
-0.043447 0.111786 -0.049380 -0.346582 0.938002 -0.005762 255 73 66
-0.071127 0.102065 0.033147 -0.346582 0.938002 -0.005762 255 73 66
-0.001158 0.127796 0.013168 -0.346582 0.938002 -0.005762 255 73 66
-0.071127 0.102065 0.033147 -0.234322 0.907633 0.348276 255 73 66
-0.000755 0.100237 0.085260 -0.234322 0.907633 0.348276 255 73 66
-0.001158 0.127796 0.013168 -0.234322 0.907633 0.348276 255 73 66
0.000441 0.069231 0.107743 -0.509799 0.492047 0.705688 255 73 66
-0.056859 0.084733 -0.072969 -0.797048 0.569757 -0.200228 255 73 66
-0.056859 0.084733 -0.072969 -0.022203 0.663278 -0.748044 255 73 66
0.000441 0.069231 0.107743 0.442576 0.537541 0.717758 255 73 66
0.095968 0.080761 0.040205 0.442576 0.537541 0.717758 255 73 66
-0.000755 0.100237 0.085260 0.442576 0.537541 0.717758 255 73 66
0.060554 0.090342 -0.071481 0.743927 0.643367 -0.180697 255 73 66
0.000389 -0.002774 0.016026 -0.903656 -0.077989 0.421098 255 249 224
-0.002777 0.098463 0.027981 -0.903656 -0.077989 0.421098 255 249 224
-0.017659 0.101514 -0.003391 -0.903656 -0.077989 0.421098 255 249 224
0.017063 0.102246 -0.000427 0.821726 -0.041420 0.568375 255 249 224
-0.002777 0.098463 0.027981 0.821726 -0.041420 0.568375 255 249 224
0.000389 -0.002774 0.016026 0.821726 -0.041420 0.568375 255 249 224
-0.014493 0.000277 -0.015346 0.081929 0.119407 -0.989459 255 249 224
-0.017659 0.101514 -0.003391 0.081929 0.119407 -0.989459 255 249 224
0.017063 0.102246 -0.000427 0.081929 0.119407 -0.989459 255 249 224
-0.017659 0.101514 -0.003391 -0.030433 0.993350 0.111035 255 255 255
-0.002777 0.098463 0.027981 -0.030433 0.993350 0.111035 255 255 255
0.017063 0.102246 -0.000427 -0.030433 0.993350 0.111035 255 255 255
-0.014493 0.000277 -0.015346 -0.903656 -0.077989 0.421098 255 249 224
0.020229 0.001010 -0.012382 0.821726 -0.041420 0.568375 255 249 224
0.020229 0.001010 -0.012382 0.081929 0.119407 -0.989459 255 249 224
3 0 1 2
3 3 4 5
3 6 7 8
3 9 10 11
3 12 13 14
3 15 16 17
3 18 19 20
3 21 22 23
3 24 25 26
3 27 28 29
3 30 0 2
3 31 3 5
3 32 6 8
3 33 34 35
3 36 12 14
3 37 38 39
3 40 41 42
3 43 44 45
3 46 47 48
3 49 37 39
3 50 40 42
3 51 43 45
