ply
format ascii 1.0
comment Created by Blender 2.74 (sub 0) - www.blender.org, source file: 'rock.blend'
element vertex 39
property float x
property float y
property float z
property float nx
property float ny
property float nz
property uchar red
property uchar green
property uchar blue
element face 13
property list uchar uint vertex_indices
end_header
-0.407139 0.348907 -0.323153 0.106482 0.960774 -0.256076 89 60 45
0.182336 0.447642 0.292409 0.106482 0.960774 -0.256076 91 62 47
0.356578 0.227536 -0.460954 0.106482 0.960774 -0.256076 88 60 45
0.533406 0.195751 0.416717 0.827942 -0.529081 -0.185971 89 60 45
0.342246 -0.019240 0.177314 0.827942 -0.529081 -0.185971 92 62 46
0.356578 0.227536 -0.460954 0.827942 -0.529081 -0.185971 88 60 45
0.182336 0.447642 0.292409 0.062042 0.509893 0.857998 89 60 45
-0.181694 -0.002123 0.586019 0.062042 0.509893 0.857998 90 61 46
0.533406 0.195751 0.416717 0.062042 0.509893 0.857998 89 60 45
-0.323514 0.426529 0.188587 -0.180541 0.635942 0.750321 90 61 46
-0.181694 -0.002123 0.586019 -0.180541 0.635942 0.750321 90 61 46
0.182336 0.447642 0.292409 -0.180541 0.635942 0.750321 89 60 45
-0.181694 -0.002123 0.586019 -0.971383 -0.152727 0.181904 90 61 46
-0.323514 0.426529 0.188587 -0.971383 -0.152727 0.181904 89 60 45
-0.407139 0.348907 -0.323153 -0.971383 -0.152727 0.181904 89 60 45
-0.407139 0.348907 -0.323153 -0.127486 0.278581 -0.951914 89 60 45
0.356578 0.227536 -0.460954 -0.127486 0.278581 -0.951914 88 60 45
-0.252226 -0.024561 -0.453196 -0.127486 0.278581 -0.951914 89 60 45
-0.407139 0.348907 -0.323153 -0.010853 0.988894 -0.148224 89 60 45
-0.323514 0.426529 0.188587 -0.010853 0.988894 -0.148224 89 60 45
0.182336 0.447642 0.292409 -0.010853 0.988894 -0.148224 89 60 45
0.182336 0.447642 0.292409 0.601884 0.793203 -0.092539 89 60 45
0.533406 0.195751 0.416717 0.601884 0.793203 -0.092539 89 60 45
0.356578 0.227536 -0.460954 0.601884 0.793203 -0.092539 88 60 45
-0.360261 -0.016130 -0.019305 -0.925308 -0.305658 -0.224454 89 60 45
-0.407139 0.348907 -0.323153 -0.925308 -0.305658 -0.224454 89 60 45
-0.252226 -0.024561 -0.453196 -0.925308 -0.305658 -0.224454 89 60 45
0.533406 0.195751 0.416717 0.336726 -0.818242 0.465936 89 60 45
-0.181694 -0.002123 0.586019 0.336726 -0.818242 0.465936 89 60 45
0.342246 -0.019240 0.177314 0.336726 -0.818242 0.465936 89 60 45
0.342246 -0.019240 0.177314 0.966301 -0.246650 -0.073667 92 62 46
0.298437 -0.027771 -0.368783 0.966301 -0.246650 -0.073667 89 60 45
0.356578 0.227536 -0.460954 0.966301 -0.246650 -0.073667 88 60 45
0.298437 -0.027771 -0.368783 0.139047 -0.364130 -0.920910 96 65 49
-0.252226 -0.024561 -0.453196 0.139047 -0.364130 -0.920910 89 60 45
0.356578 0.227536 -0.460954 0.139047 -0.364130 -0.920910 88 60 45
-0.360261 -0.016130 -0.019305 -0.954042 0.109631 0.278900 89 60 45
-0.181694 -0.002123 0.586019 -0.954042 0.109631 0.278900 90 61 46
-0.407139 0.348907 -0.323153 -0.954042 0.109631 0.278900 89 60 45
3 0 1 2
3 3 4 5
3 6 7 8
3 9 10 11
3 12 13 14
3 15 16 17
3 18 19 20
3 21 22 23
3 24 25 26
3 27 28 29
3 30 31 32
3 33 34 35
3 36 37 38
