ply
format ascii 1.0
comment Created by Blender 2.74 (sub 0) - www.blender.org, source file: 'rock.blend'
element vertex 39
property float x
property float y
property float z
property float nx
property float ny
property float nz
property uchar red
property uchar green
property uchar blue
element face 13
property list uchar uint vertex_indices
end_header
-0.407139 0.558252 -0.323153 0.160987 0.907852 -0.387153 89 60 45
0.182336 0.716227 0.292409 0.160987 0.907852 -0.387153 91 62 47
0.356578 0.364058 -0.460954 0.160987 0.907852 -0.387153 88 60 45
0.533406 0.313202 0.416717 0.909103 -0.363090 -0.204201 89 60 45
0.342246 -0.030784 0.177314 0.909103 -0.363090 -0.204201 92 62 46
0.356578 0.364058 -0.460954 0.909103 -0.363090 -0.204201 88 60 45
0.182336 0.716227 0.292409 0.067630 0.347388 0.935280 89 60 45
-0.181694 -0.003396 0.586019 0.067630 0.347388 0.935280 90 61 46
0.533406 0.313202 0.416717 0.067630 0.347388 0.935280 89 60 45
-0.323514 0.682446 0.188587 -0.207979 0.457868 0.864350 90 61 46
-0.181694 -0.003396 0.586019 -0.207979 0.457868 0.864350 90 61 46
0.182336 0.716227 0.292409 -0.207979 0.457868 0.864350 89 60 45
-0.181694 -0.003396 0.586019 -0.978361 -0.096140 0.183210 90 61 46
-0.323514 0.682446 0.188587 -0.978361 -0.096140 0.183210 89 60 45
-0.407139 0.558252 -0.323153 -0.978361 -0.096140 0.183210 89 60 45
-0.407139 0.558252 -0.323153 -0.130612 0.178382 -0.975254 89 60 45
0.356578 0.364058 -0.460954 -0.130612 0.178382 -0.975254 88 60 45
-0.252226 -0.039297 -0.453196 -0.130612 0.178382 -0.975254 89 60 45
-0.407139 0.558252 -0.323153 -0.017073 0.972285 -0.233175 89 60 45
-0.323514 0.682446 0.188587 -0.017073 0.972285 -0.233175 89 60 45
0.182336 0.716227 0.292409 -0.017073 0.972285 -0.233175 89 60 45
0.182336 0.716227 0.292409 0.766499 0.631340 -0.117848 89 60 45
0.533406 0.313202 0.416717 0.766499 0.631340 -0.117848 89 60 45
0.356578 0.364058 -0.460954 0.766499 0.631340 -0.117848 88 60 45
-0.360261 -0.025808 -0.019305 -0.952828 -0.196718 -0.231130 89 60 45
-0.407139 0.558252 -0.323153 -0.952828 -0.196718 -0.231130 89 60 45
-0.252226 -0.039297 -0.453196 -0.952828 -0.196718 -0.231130 89 60 45
0.533406 0.313202 0.416717 0.437634 -0.664655 0.605566 89 60 45
-0.181694 -0.003396 0.586019 0.437634 -0.664655 0.605566 89 60 45
0.342246 -0.030784 0.177314 0.437634 -0.664655 0.605566 89 60 45
0.342246 -0.030784 0.177314 0.984726 -0.157096 -0.075071 92 62 46
0.298437 -0.044434 -0.368783 0.984726 -0.157096 -0.075071 89 60 45
0.356578 0.364058 -0.460954 0.984726 -0.157096 -0.075071 88 60 45
0.298437 -0.044434 -0.368783 0.145029 -0.237372 -0.960532 96 65 49
-0.252226 -0.039297 -0.453196 0.145029 -0.237372 -0.960532 89 60 45
0.356578 0.364058 -0.460954 0.145029 -0.237372 -0.960532 88 60 45
-0.360261 -0.025808 -0.019305 -0.957555 0.068772 0.279927 89 60 45
-0.181694 -0.003396 0.586019 -0.957555 0.068772 0.279927 90 61 46
-0.407139 0.558252 -0.323153 -0.957555 0.068772 0.279927 89 60 45
3 0 1 2
3 3 4 5
3 6 7 8
3 9 10 11
3 12 13 14
3 15 16 17
3 18 19 20
3 21 22 23
3 24 25 26
3 27 28 29
3 30 31 32
3 33 34 35
3 36 37 38
