ply
format ascii 1.0
comment Created by Blender 2.74 (sub 0) - www.blender.org, source file: ''
element vertex 48
property float x
property float y
property float z
property float nx
property float ny
property float nz
property uchar red
property uchar green
property uchar blue
element face 16
property list uchar uint vertex_indices
end_header
-0.282676 0.362703 -0.364555 0.165846 0.956244 -0.241023 89 60 45
0.182336 0.447642 0.292409 0.165846 0.956244 -0.241023 91 62 47
0.356578 0.227536 -0.460954 0.165846 0.956244 -0.241023 88 60 45
-0.257098 0.016012 0.571765 -0.014345 -0.999398 0.031576 91 62 46
0.238581 -0.022665 -0.427195 -0.014345 -0.999398 0.031576 90 60 45
0.468918 0.001035 0.427552 -0.014345 -0.999398 0.031576 89 60 45
-0.465407 0.177538 -0.093510 -0.792804 0.596032 -0.127307 89 60 45
-0.323514 0.426529 0.188587 -0.792804 0.596032 -0.127307 89 60 45
-0.282676 0.362703 -0.364555 -0.792804 0.596032 -0.127307 89 60 45
0.468918 0.001035 0.427552 0.869939 -0.440252 -0.222224 89 60 45
0.238581 -0.022665 -0.427195 0.869939 -0.440252 -0.222224 90 60 45
0.356578 0.227536 -0.460954 0.869939 -0.440252 -0.222224 88 60 45
0.182336 0.447642 0.292409 -0.047285 0.576218 0.815927 89 60 45
-0.257098 0.016012 0.571765 -0.047285 0.576218 0.815927 89 60 45
0.383160 0.310212 0.401101 -0.047285 0.576218 0.815927 89 60 45
-0.323514 0.426529 0.188587 -0.177935 0.655920 0.733559 90 61 46
-0.257098 0.016012 0.571765 -0.177935 0.655920 0.733559 89 60 45
0.182336 0.447642 0.292409 -0.177935 0.655920 0.733559 89 60 45
-0.257098 0.016012 0.571765 -0.930952 0.157066 0.329633 89 60 45
-0.323514 0.426529 0.188587 -0.930952 0.157066 0.329633 89 60 45
-0.465407 0.177538 -0.093510 -0.930952 0.157066 0.329633 89 60 45
-0.282676 0.362703 -0.364555 -0.119023 0.138307 -0.983211 89 60 45
0.356578 0.227536 -0.460954 -0.119023 0.138307 -0.983211 88 60 45
-0.326131 -0.020625 -0.413217 -0.119023 0.138307 -0.983211 89 60 45
-0.257098 0.016012 0.571765 -0.002686 -0.999298 0.037358 91 62 46
-0.326131 -0.020625 -0.413217 -0.002686 -0.999298 0.037358 89 60 45
0.238581 -0.022665 -0.427195 -0.002686 -0.999298 0.037358 99 67 51
-0.282676 0.362703 -0.364555 -0.017663 0.993104 -0.115897 89 60 45
-0.323514 0.426529 0.188587 -0.017663 0.993104 -0.115897 89 60 45
0.182336 0.447642 0.292409 -0.017663 0.993104 -0.115897 89 60 45
0.182336 0.447642 0.292409 0.596649 0.796880 -0.094824 89 60 45
0.383160 0.310212 0.401101 0.596649 0.796880 -0.094824 89 60 45
0.356578 0.227536 -0.460954 0.596649 0.796880 -0.094824 88 60 45
0.383160 0.310212 0.401101 0.195707 0.137356 0.970995 89 60 45
-0.257098 0.016012 0.571765 0.195707 0.137356 0.970995 91 62 46
0.468918 0.001035 0.427552 0.195707 0.137356 0.970995 89 60 45
0.238581 -0.022665 -0.427195 -0.025002 -0.122081 -0.992205 96 65 49
-0.326131 -0.020625 -0.413217 -0.025002 -0.122081 -0.992205 89 60 45
0.356578 0.227536 -0.460954 -0.025002 -0.122081 -0.992205 88 60 45
-0.326131 -0.020625 -0.413217 -0.865473 0.158443 -0.475239 89 60 45
-0.465407 0.177538 -0.093510 -0.865473 0.158443 -0.475239 89 60 45
-0.282676 0.362703 -0.364555 -0.865473 0.158443 -0.475239 89 60 45
0.383160 0.310212 0.401101 0.963365 0.262518 -0.054883 89 60 45
0.468918 0.001035 0.427552 0.963365 0.262518 -0.054883 89 60 45
0.356578 0.227536 -0.460954 0.963365 0.262518 -0.054883 88 60 45
-0.326131 -0.020625 -0.413217 -0.752944 -0.653554 0.077081 89 60 45
-0.257098 0.016012 0.571765 -0.752944 -0.653554 0.077081 89 60 45
-0.465407 0.177538 -0.093510 -0.752944 -0.653554 0.077081 89 60 45
3 0 1 2
3 3 4 5
3 6 7 8
3 9 10 11
3 12 13 14
3 15 16 17
3 18 19 20
3 21 22 23
3 24 25 26
3 27 28 29
3 30 31 32
3 33 34 35
3 36 37 38
3 39 40 41
3 42 43 44
3 45 46 47
