ply
format ascii 1.0
comment Created by Blender 2.74 (sub 0) - www.blender.org, source file: 'rock-small.blend'
element vertex 18
property float x
property float y
property float z
property float nx
property float ny
property float nz
property uchar red
property uchar green
property uchar blue
element face 6
property list uchar uint vertex_indices
end_header
-0.070575 0.107582 -0.027875 0.242151 0.861076 -0.447114 89 60 45
0.064654 0.114235 0.058174 0.242151 0.861076 -0.447114 91 62 47
0.102952 0.011261 -0.119396 0.242151 0.861076 -0.447114 88 59 45
-0.070575 0.107582 -0.027875 -0.339521 0.814405 0.470607 90 61 46
-0.067724 0.005631 0.150613 -0.339521 0.814405 0.470607 89 60 45
0.064654 0.114235 0.058174 -0.339521 0.814405 0.470607 89 60 45
-0.070575 0.107582 -0.027875 -0.092654 0.593041 -0.799823 89 60 45
0.102952 0.011261 -0.119396 -0.092654 0.593041 -0.799823 88 59 45
-0.085909 -0.004020 -0.108848 -0.092654 0.593041 -0.799823 89 60 45
0.064654 0.114235 0.058174 0.178400 0.502566 0.845932 89 60 45
-0.067724 0.005631 0.150613 0.178400 0.502566 0.845932 91 62 46
0.123521 0.001686 0.112625 0.178400 0.502566 0.845932 89 60 45
0.064654 0.114235 0.058174 0.896325 0.439135 -0.061338 89 60 45
0.123521 0.001686 0.112625 0.896325 0.439135 -0.061338 89 60 45
0.102952 0.011261 -0.119396 0.896325 0.439135 -0.061338 88 59 45
-0.085909 -0.004020 -0.108848 -0.993872 0.088398 0.066369 89 60 45
-0.067724 0.005631 0.150613 -0.993872 0.088398 0.066369 89 60 45
-0.070575 0.107582 -0.027875 -0.993872 0.088398 0.066369 89 60 45
3 0 1 2
3 3 4 5
3 6 7 8
3 9 10 11
3 12 13 14
3 15 16 17
