ply
format ascii 1.0
comment Created by Blender 2.74 (sub 0) - www.blender.org, source file: ''
element vertex 48
property float x
property float y
property float z
property float nx
property float ny
property float nz
property uchar red
property uchar green
property uchar blue
element face 16
property list uchar uint vertex_indices
end_header
-0.282676 0.580324 -0.364555 0.249235 0.898157 -0.362211 89 60 45
0.182336 0.716227 0.292409 0.249235 0.898157 -0.362211 91 62 47
0.356578 0.364058 -0.460954 0.249235 0.898157 -0.362211 88 60 45
-0.257098 0.025620 0.571765 -0.022931 -0.998462 0.050475 91 62 46
0.238581 -0.036265 -0.427195 -0.022931 -0.998462 0.050475 90 60 45
0.468918 0.001655 0.427552 -0.022931 -0.998462 0.050475 89 60 45
-0.465407 0.284060 -0.093510 -0.895657 0.420848 -0.143823 89 60 45
-0.323514 0.682446 0.188587 -0.895657 0.420848 -0.143823 89 60 45
-0.282676 0.580324 -0.364555 -0.895657 0.420848 -0.143823 89 60 45
0.468918 0.001655 0.427552 0.926364 -0.293005 -0.236638 89 60 45
0.238581 -0.036265 -0.427195 0.926364 -0.293005 -0.236638 90 60 45
0.356578 0.364058 -0.460954 0.926364 -0.293005 -0.236638 88 60 45
0.182336 0.716227 0.292409 -0.052943 0.403232 0.913565 89 60 45
-0.257098 0.025620 0.571765 -0.052943 0.403232 0.913565 89 60 45
0.383160 0.496340 0.401101 -0.052943 0.403232 0.913565 89 60 45
-0.323514 0.682446 0.188587 -0.207149 0.477258 0.853999 90 61 46
-0.257098 0.025620 0.571765 -0.207149 0.477258 0.853999 89 60 45
0.182336 0.716227 0.292409 -0.207149 0.477258 0.853999 89 60 45
-0.257098 0.025620 0.571765 -0.938030 0.098912 0.332139 89 60 45
-0.323514 0.682446 0.188587 -0.938030 0.098912 0.332139 89 60 45
-0.465407 0.284060 -0.093510 -0.938030 0.098912 0.332139 89 60 45
-0.282676 0.580324 -0.364555 -0.119723 0.086950 -0.988992 89 60 45
0.356578 0.364058 -0.460954 -0.119723 0.086950 -0.988992 88 60 45
-0.326131 -0.033000 -0.413217 -0.119723 0.086950 -0.988992 89 60 45
-0.257098 0.025620 0.571765 -0.004292 -0.998207 0.059708 91 62 46
-0.326131 -0.033000 -0.413217 -0.004292 -0.998207 0.059708 89 60 45
0.238581 -0.036265 -0.427195 -0.004292 -0.998207 0.059708 99 67 51
-0.282676 0.580324 -0.364555 -0.027963 0.982626 -0.183478 89 60 45
-0.323514 0.682446 0.188587 -0.027963 0.982626 -0.183478 89 60 45
0.182336 0.716227 0.292409 -0.027963 0.982626 -0.183478 89 60 45
0.182336 0.716227 0.292409 0.762037 0.636107 -0.121108 89 60 45
0.383160 0.496340 0.401101 0.762037 0.636107 -0.121108 89 60 45
0.356578 0.364058 -0.460954 0.762037 0.636107 -0.121108 88 60 45
0.383160 0.496340 0.401101 0.196842 0.086345 0.976626 89 60 45
-0.257098 0.025620 0.571765 0.196842 0.086345 0.976626 91 62 46
0.468918 0.001655 0.427552 0.196842 0.086345 0.976626 89 60 45
0.238581 -0.036265 -0.427195 -0.025116 -0.076650 -0.996742 96 65 49
-0.326131 -0.033000 -0.413217 -0.025116 -0.076650 -0.996742 89 60 45
0.356578 0.364058 -0.460954 -0.025116 -0.076650 -0.996742 88 60 45
-0.326131 -0.033000 -0.413217 -0.872170 0.099793 -0.478916 89 60 45
-0.465407 0.284060 -0.093510 -0.872170 0.099793 -0.478916 89 60 45
-0.282676 0.580324 -0.364555 -0.872170 0.099793 -0.478916 89 60 45
0.383160 0.496340 0.401101 0.984254 0.167632 -0.056074 89 60 45
0.468918 0.001655 0.427552 0.984254 0.167632 -0.056074 89 60 45
0.356578 0.364058 -0.460954 0.984254 0.167632 -0.056074 88 60 45
-0.326131 -0.033000 -0.413217 -0.875448 -0.474930 0.089622 89 60 45
-0.257098 0.025620 0.571765 -0.875448 -0.474930 0.089622 89 60 45
-0.465407 0.284060 -0.093510 -0.875448 -0.474930 0.089622 89 60 45
3 0 1 2
3 3 4 5
3 6 7 8
3 9 10 11
3 12 13 14
3 15 16 17
3 18 19 20
3 21 22 23
3 24 25 26
3 27 28 29
3 30 31 32
3 33 34 35
3 36 37 38
3 39 40 41
3 42 43 44
3 45 46 47
