ply
format ascii 1.0
comment Created by Blender Created
element vertex 305
property float x
property float y
property float z
property float s
property float t
element face 480
property list uchar uint list
end_header
0.195090 0.980785 0.000000 0.181006 0.980785
0.375330 0.923880 0.074658 0.118231 0.923880
0.191342 0.980785 0.038060 0.182789 0.980785
0.923880 0.382683 0.000000 0.114800 0.382683
0.961940 0.195090 0.191342 0.181111 0.195090
0.906127 0.382683 0.180240 0.114800 0.382683
0.707107 0.707107 0.000000 0.000121 0.707107
0.815493 0.555570 0.162212 0.053687 0.555570
0.693520 0.707107 0.137950 0.000121 0.707107
0.555570 0.831470 0.000000 0.053655 0.831470
0.382683 0.923880 0.000000 0.114733 0.923880
0.980785 0.195090 0.000000 0.181111 0.195090
0.980785 0.000000 0.195090 0.250073 0.000000
0.831470 0.555570 0.000000 0.053687 0.555570
0.693520 0.707107 0.137950 0.006584 0.707107
0.544895 0.831470 0.108386 0.058734 0.831470
0.923879 0.000000 0.382684 0.250073 0.000000
0.906127 0.195090 0.375330 0.181111 0.195090
0.853553 0.382683 0.353553 0.114800 0.382683
0.768178 0.555570 0.318190 0.053687 0.555570
0.653281 0.707107 0.270598 0.022399 0.707107
0.513280 0.831470 0.212608 0.071159 0.831470
0.353553 0.923880 0.146447 0.126790 0.923880
0.180240 0.980785 0.074658 0.187152 0.980785
0.653281 0.707107 0.270598 0.000121 0.707107
0.831469 0.000000 0.555570 0.250073 0.000000
0.815493 0.195090 0.544895 0.181111 0.195090
0.768178 0.382683 0.513280 0.114800 0.382683
0.691342 0.555570 0.461940 0.053687 0.555570
0.587938 0.707107 0.392848 0.046957 0.707107
0.461940 0.831470 0.308658 0.090455 0.831470
0.318190 0.923880 0.212608 0.140081 0.923880
0.162212 0.980785 0.108387 0.193928 0.980785
0.587938 0.707107 0.392848 0.000121 0.707107
0.693520 0.195090 0.693520 0.181111 0.195090
0.653281 0.382683 0.653282 0.114800 0.382683
0.587938 0.555570 0.587938 0.053687 0.555570
0.500000 0.707107 0.500000 0.079316 0.707107
0.392847 0.831470 0.392848 0.115879 0.831470
0.270598 0.923880 0.270598 0.157593 0.923880
0.137950 0.980785 0.137950 0.202856 0.980785
0.587938 0.555570 0.587938 0.049309 0.555570
0.707107 0.000000 0.707107 0.749927 0.000000
0.544895 0.195090 0.815493 0.680966 0.195090
0.693520 0.195090 0.693520 0.680966 0.195090
0.587938 0.555570 0.587938 0.553541 0.555570
0.513280 0.382683 0.768178 0.614654 0.382683
0.461940 0.555570 0.691342 0.553541 0.555570
0.392847 0.707107 0.587938 0.118231 0.707107
0.308658 0.831470 0.461940 0.146454 0.831470
0.212607 0.923880 0.318190 0.178654 0.923880
0.108386 0.980785 0.162212 0.213592 0.980785
0.653281 0.382683 0.653282 0.614654 0.382683
0.382683 0.000000 0.923880 0.749927 0.000000
0.375330 0.195090 0.906128 0.680966 0.195090
0.353553 0.382683 0.853554 0.614654 0.382683
0.318189 0.555570 0.768178 0.553541 0.555570
0.270598 0.707107 0.653282 0.162207 0.707107
0.212607 0.831470 0.513280 0.181006 0.831470
0.146446 0.923880 0.353554 0.202453 0.923880
0.074658 0.980785 0.180240 0.225725 0.980785
0.270598 0.707107 0.653282 0.499975 0.707107
0.392847 0.707107 0.587938 0.499975 0.707107
0.195090 0.000000 0.980785 0.749927 0.000000
0.191341 0.195090 0.961940 0.680966 0.195090
0.180240 0.382683 0.906128 0.614654 0.382683
0.162211 0.555570 0.815493 0.553541 0.555570
0.108386 0.831470 0.544895 0.218206 0.831470
0.074658 0.923880 0.375331 0.228078 0.923880
0.038060 0.980785 0.191342 0.238788 0.980785
0.137949 0.707107 0.693520 0.499975 0.707107
-0.000000 0.000000 1.000000 0.749927 0.000000
-0.000000 0.195090 0.980785 0.680966 0.195090
-0.000000 0.382683 0.923880 0.614654 0.382683
-0.000000 0.555570 0.831470 0.553542 0.555570
-0.000000 0.707107 0.707107 0.258453 0.707107
-0.000000 0.831470 0.555570 0.256626 0.831470
-0.000000 0.923880 0.382684 0.254541 0.923880
-0.000000 0.980785 0.195091 0.252280 0.980785
-0.000000 0.707107 0.707107 0.499975 0.707107
-0.195091 0.000000 0.980785 0.749927 0.000000
-0.191342 0.195090 0.961940 0.680966 0.195090
-0.180240 0.382683 0.906128 0.614654 0.382683
-0.162212 0.555570 0.815493 0.553541 0.555570
-0.137950 0.707107 0.693520 0.307024 0.707107
-0.108387 0.831470 0.544895 0.294788 0.831470
-0.038061 0.980785 0.191342 0.265680 0.980785
-0.137950 0.707107 0.693520 0.499975 0.707107
-0.074658 0.923880 0.375331 0.280828 0.923880
-0.382684 0.000000 0.923880 0.749927 0.000000
-0.375331 0.195090 0.906127 0.680966 0.195090
-0.353554 0.382683 0.853554 0.614654 0.382683
-0.318190 0.555570 0.768178 0.553542 0.555570
-0.270598 0.707107 0.653282 0.353401 0.707107
-0.212608 0.831470 0.513280 0.331226 0.831470
-0.146447 0.923880 0.353554 0.305927 0.923880
-0.074658 0.980785 0.180240 0.278476 0.980785
-0.270598 0.707107 0.653282 0.499975 0.707107
-0.555571 0.000000 0.831470 0.749927 0.000000
-0.544895 0.195090 0.815493 0.680966 0.195090
-0.513280 0.382683 0.768178 0.614654 0.382683
-0.461940 0.555570 0.691342 0.553541 0.555570
-0.392848 0.707107 0.587938 0.395801 0.707107
-0.308659 0.831470 0.461940 0.364540 0.831470
-0.212608 0.923880 0.318190 0.328874 0.923880
-0.108387 0.980785 0.162212 0.290174 0.980785
-0.392848 0.707107 0.587938 0.499975 0.707107
-0.707107 0.000000 0.707107 0.749927 0.000000
-0.693520 0.195090 0.693520 0.680966 0.195090
-0.653282 0.382683 0.653282 0.614654 0.382683
-0.587938 0.555570 0.587938 0.553541 0.555570
-0.500000 0.707107 0.500000 0.432596 0.707107
-0.392848 0.831470 0.392848 0.393449 0.831470
-0.270599 0.923880 0.270598 0.348787 0.923880
-0.137950 0.980785 0.137950 0.300326 0.980785
-0.587938 0.555570 0.587938 0.464723 0.555570
-0.831470 0.000000 0.555570 0.749927 0.000000
-0.815493 0.195090 0.544895 0.680966 0.195090
-0.768178 0.382683 0.513280 0.614654 0.382683
-0.691342 0.555570 0.461940 0.553541 0.555570
-0.461940 0.831470 0.308658 0.416843 0.831470
-0.318190 0.923880 0.212608 0.364901 0.923880
-0.162212 0.980785 0.108386 0.308540 0.980785
-0.587938 0.707107 0.392848 0.462370 0.707107
-0.923880 0.000000 0.382683 0.749927 0.000000
-0.906128 0.195090 0.375330 0.680966 0.195090
-0.853554 0.382683 0.353553 0.614654 0.382683
-0.768178 0.555570 0.318190 0.553541 0.555570
-0.653282 0.707107 0.270598 0.483981 0.707107
-0.513280 0.831470 0.212608 0.433822 0.831470
-0.353554 0.923880 0.146447 0.376596 0.923880
-0.180240 0.980785 0.074658 0.314503 0.980785
-0.587938 0.707107 0.392848 0.499975 0.707107
-0.653282 0.707107 0.270598 0.499975 0.707107
-0.980786 0.000000 0.195090 0.749927 0.000000
-0.961940 0.195090 0.191342 0.680966 0.195090
-0.906128 0.382683 0.180240 0.614654 0.382683
-0.815493 0.555570 0.162212 0.553541 0.555570
-0.693520 0.707107 0.137950 0.496597 0.707107
-0.544896 0.831470 0.108386 0.443735 0.831470
-0.375331 0.923880 0.074658 0.383424 0.923880
-0.191342 0.980785 0.038060 0.317984 0.980785
-0.693520 0.707107 0.137950 0.499975 0.707107
-1.000000 0.000000 -0.000000 0.749927 0.000000
-0.980785 0.195090 -0.000000 0.680966 0.195090
-0.923880 0.382683 0.000000 0.614654 0.382683
-0.831470 0.555570 -0.000000 0.553542 0.555570
-0.555571 0.831470 0.000000 0.446199 0.831470
-0.382684 0.923880 0.000000 0.385122 0.923880
-0.195091 0.980785 -0.000000 0.318849 0.980785
-0.707107 0.707107 -0.000000 0.499975 0.707107
-0.980786 0.000000 -0.195090 0.749927 0.000000
-0.961940 0.195090 -0.191342 0.680966 0.195090
-0.906128 0.382683 -0.180240 0.614654 0.382683
-0.815493 0.555570 -0.162212 0.553541 0.555570
-0.707107 0.707107 -0.000000 0.499734 0.707107
-0.544896 0.831470 -0.108386 0.441121 0.831470
-0.375331 0.923880 -0.074658 0.381624 0.923880
-0.191342 0.980785 -0.038060 0.317066 0.980785
-0.693520 0.707107 -0.137950 0.499975 0.707107
-0.923880 0.000000 -0.382684 0.749927 0.000000
-0.906127 0.195090 -0.375330 0.680966 0.195090
-0.853554 0.382683 -0.353553 0.614654 0.382683
-0.768178 0.555570 -0.318190 0.553541 0.555570
-0.693520 0.707107 -0.137950 0.493271 0.707107
-0.513280 0.831470 -0.212608 0.428696 0.831470
-0.353554 0.923880 -0.146447 0.373065 0.923880
-0.180240 0.980785 -0.074658 0.312702 0.980785
-0.653282 0.707107 -0.270598 0.499975 0.707107
-0.831470 0.000000 -0.555570 0.749927 0.000000
-0.815493 0.195090 -0.544895 0.680966 0.195090
-0.768178 0.382683 -0.513280 0.614654 0.382683
-0.691342 0.555570 -0.461940 0.553541 0.555570
-0.587938 0.707107 -0.392847 0.452898 0.707107
-0.461940 0.831470 -0.308658 0.409400 0.831470
-0.318190 0.923880 -0.212608 0.359774 0.923880
-0.162212 0.980785 -0.108386 0.305927 0.980785
-0.587938 0.707107 -0.392847 0.499975 0.707107
-0.693520 0.195090 -0.693520 0.680966 0.195090
-0.653282 0.382683 -0.653281 0.614654 0.382683
-0.587938 0.555570 -0.587938 0.553541 0.555570
-0.392848 0.831470 -0.392848 0.383976 0.831470
-0.270598 0.923880 -0.270598 0.342262 0.923880
-0.137950 0.980785 -0.137950 0.296999 0.980785
-0.691342 0.555570 -0.461940 0.488595 0.555570
-0.500000 0.707107 -0.500000 0.420539 0.707107
-0.693520 0.195090 -0.693520 0.181111 0.195090
-0.555570 0.000000 -0.831470 0.250073 0.000000
-0.544895 0.195090 -0.815493 0.181111 0.195090
-0.587938 0.555570 -0.587938 0.053687 0.555570
-0.513280 0.382683 -0.768178 0.114800 0.382683
-0.461940 0.555570 -0.691342 0.053687 0.555570
-0.308659 0.831470 -0.461940 0.353401 0.831470
-0.212608 0.923880 -0.318190 0.321201 0.923880
-0.108387 0.980785 -0.162212 0.286262 0.980785
-0.653282 0.382683 -0.653281 0.114800 0.382683
-0.587938 0.555570 -0.587938 0.450545 0.555570
-0.392848 0.707107 -0.587938 0.381624 0.707107
-0.382684 0.000000 -0.923880 0.250073 0.000000
-0.375330 0.195090 -0.906127 0.181111 0.195090
-0.353554 0.382683 -0.853553 0.114800 0.382683
-0.318190 0.555570 -0.768177 0.053687 0.555570
-0.212608 0.831470 -0.513280 0.318849 0.831470
-0.146447 0.923880 -0.353553 0.297401 0.923880
-0.074658 0.980785 -0.180240 0.274129 0.980785
-0.270598 0.707107 -0.653281 0.000121 0.707107
-0.392848 0.707107 -0.587938 0.000121 0.707107
-0.195090 0.000000 -0.980785 0.250073 0.000000
-0.191342 0.195090 -0.961939 0.181111 0.195090
-0.180240 0.382683 -0.906127 0.114800 0.382683
-0.162212 0.555570 -0.815493 0.053687 0.555570
-0.270598 0.707107 -0.653281 0.337648 0.707107
-0.108387 0.831470 -0.544895 0.281648 0.831470
-0.038061 0.980785 -0.191342 0.261066 0.980785
-0.137950 0.707107 -0.693520 0.000121 0.707107
-0.074658 0.923880 -0.375330 0.271777 0.923880
-0.000000 0.000000 -1.000000 0.250073 0.000000
-0.000000 0.195090 -0.980785 0.181111 0.195090
-0.000000 0.382683 -0.923879 0.114800 0.382683
-0.000000 0.555570 -0.831469 0.053687 0.555570
-0.137950 0.707107 -0.693520 0.290301 0.707107
-0.000000 0.831470 -0.555570 0.243229 0.831470
-0.000000 0.980785 -0.195090 0.247575 0.980785
-0.000000 0.707107 -0.707107 0.000121 0.707107
-0.000000 0.923880 -0.382683 0.245313 0.923880
0.195090 0.000000 -0.980785 0.250073 0.000000
0.191342 0.195090 -0.961939 0.181111 0.195090
0.180240 0.382683 -0.906127 0.114800 0.382683
0.162211 0.555570 -0.815493 0.053687 0.555570
-0.000000 0.707107 -0.707107 0.241402 0.707107
0.108386 0.831470 -0.544895 0.205067 0.831470
0.038060 0.980785 -0.191342 0.234175 0.980785
0.137949 0.707107 -0.693520 0.000121 0.707107
0.074658 0.923880 -0.375330 0.219027 0.923880
0.382683 0.000000 -0.923879 0.250073 0.000000
0.375330 0.195090 -0.906127 0.181111 0.195090
0.353553 0.382683 -0.853553 0.114800 0.382683
0.318189 0.555570 -0.768177 0.053687 0.555570
0.137949 0.707107 -0.693520 0.192831 0.707107
0.212607 0.831470 -0.513280 0.168629 0.831470
0.146446 0.923880 -0.353553 0.193928 0.923880
0.074658 0.980785 -0.180240 0.221379 0.980785
0.270598 0.707107 -0.653281 0.000121 0.707107
0.555570 0.000000 -0.831469 0.250073 0.000000
0.544895 0.195090 -0.815493 0.181111 0.195090
0.513280 0.382683 -0.768178 0.114800 0.382683
0.461939 0.555570 -0.691341 0.053687 0.555570
0.270598 0.707107 -0.653281 0.146454 0.707107
0.308658 0.831470 -0.461940 0.135315 0.831470
0.212607 0.923880 -0.318190 0.170981 0.923880
0.108386 0.980785 -0.162212 0.209681 0.980785
0.392847 0.707107 -0.587938 0.000121 0.707107
0.707106 0.000000 -0.707106 0.250073 0.000000
0.693519 0.195090 -0.693519 0.181111 0.195090
0.653281 0.382683 -0.653281 0.114800 0.382683
0.587937 0.555570 -0.587937 0.053687 0.555570
0.500000 0.707107 -0.500000 0.067259 0.707107
0.392847 0.831470 -0.392847 0.106406 0.831470
0.270598 0.923880 -0.270598 0.151068 0.923880
0.137949 0.980785 -0.137950 0.199529 0.980785
0.461939 0.555570 -0.691341 0.078398 0.555570
0.392847 0.707107 -0.587938 0.104054 0.707107
0.815492 0.195090 -0.544895 0.181111 0.195090
0.768177 0.382683 -0.513280 0.114800 0.382683
0.691341 0.555570 -0.461939 0.053687 0.555570
0.587937 0.707107 -0.392847 0.037484 0.707107
0.461939 0.831470 -0.308658 0.083012 0.831470
0.318189 0.923880 -0.212607 0.134954 0.923880
0.162211 0.980785 -0.108386 0.191314 0.980785
0.587937 0.555570 -0.587937 0.035132 0.555570
0.923879 0.000000 -0.382683 0.250073 0.000000
0.906127 0.195090 -0.375330 0.181111 0.195090
0.853553 0.382683 -0.353553 0.114800 0.382683
0.768177 0.555570 -0.318189 0.053687 0.555570
0.513280 0.831470 -0.212607 0.066033 0.831470
0.180240 0.980785 -0.074658 0.185352 0.980785
0.653281 0.707107 -0.270598 0.000121 0.707107
0.587937 0.707107 -0.392847 0.000121 0.707107
0.353553 0.923880 -0.146447 0.123258 0.923880
0.980785 0.000000 -0.195090 0.250073 0.000000
0.961939 0.195090 -0.191341 0.181111 0.195090
0.906127 0.382683 -0.180240 0.114800 0.382683
0.815492 0.555570 -0.162211 0.053687 0.555570
0.693520 0.707107 -0.137950 0.003258 0.707107
0.544895 0.831470 -0.108386 0.056120 0.831470
0.375330 0.923880 -0.074658 0.116431 0.923880
0.191342 0.980785 -0.038060 0.181871 0.980785
0.693520 0.707107 -0.137950 0.000121 0.707107
-0.000000 1.000000 -0.000000 0.249927 1.000000
1.000000 0.000000 0.000000 0.250073 0.000000
0.707107 0.707107 0.000000 0.000121 0.707107
0.707107 0.000000 0.707107 0.250073 0.000000
0.691342 0.555570 0.461940 0.011260 0.555570
0.555570 0.000000 0.831470 0.749927 0.000000
0.461940 0.555570 0.691342 0.095069 0.555570
0.137949 0.707107 0.693520 0.209554 0.707107
-0.461940 0.555570 0.691342 0.421457 0.555570
-0.691342 0.555570 0.461940 0.499734 0.555570
-0.653282 0.707107 -0.270598 0.477456 0.707107
-0.707107 0.000000 -0.707107 0.749927 0.000000
-0.707107 0.000000 -0.707107 0.250073 0.000000
-0.461940 0.555570 -0.691342 0.404786 0.555570
0.831469 0.000000 -0.555570 0.250073 0.000000
0.691341 0.555570 -0.461939 0.000121 0.555570
0.653281 0.707107 -0.270598 0.015874 0.707107
3 0 1 2
3 3 4 5
3 6 7 8
3 9 1 10
3 11 12 4
3 13 5 7
3 9 14 15
3 4 16 17
3 7 18 19
3 15 20 21
3 2 22 23
3 5 17 18
3 8 19 24
3 1 21 22
3 17 25 26
3 19 27 28
3 21 29 30
3 23 31 32
3 17 27 18
3 24 28 33
3 22 30 31
3 25 34 26
3 28 35 36
3 30 37 38
3 32 39 40
3 27 34 35
3 29 41 37
3 31 38 39
3 42 43 44
3 45 46 47
3 38 48 49
3 40 50 51
3 52 43 46
3 41 48 37
3 39 49 50
3 43 53 54
3 47 55 56
3 49 57 58
3 51 59 60
3 43 55 46
3 47 61 62
3 50 58 59
3 54 63 64
3 56 65 66
3 57 67 58
3 60 68 69
3 54 65 55
3 61 66 70
3 59 67 68
3 64 71 72
3 66 73 74
3 67 75 76
3 69 77 78
3 64 73 65
3 70 74 79
3 68 76 77
3 72 80 81
3 74 82 83
3 76 84 85
3 77 86 78
3 72 82 73
3 74 87 79
3 77 85 88
3 81 89 90
3 83 91 92
3 85 93 94
3 86 95 96
3 81 91 82
3 87 92 97
3 85 95 88
3 90 98 99
3 92 100 101
3 94 102 103
3 96 104 105
3 90 100 91
3 92 106 97
3 95 103 104
3 99 107 108
3 101 109 110
3 103 111 112
3 105 113 114
3 99 109 100
3 102 115 111
3 104 112 113
3 108 116 117
3 110 118 119
3 111 120 112
3 114 121 122
3 108 118 109
3 115 123 111
3 113 120 121
3 117 124 125
3 119 126 127
3 120 128 129
3 122 130 131
3 117 126 118
3 132 127 133
3 120 130 121
3 125 134 135
3 127 136 137
3 129 138 139
3 131 140 141
3 125 136 126
3 133 137 142
3 130 139 140
3 135 143 144
3 137 145 146
3 138 147 139
3 141 148 149
3 135 145 136
3 142 146 150
3 139 148 140
3 144 151 152
3 146 153 154
3 155 156 147
3 149 157 158
3 144 153 145
3 146 159 150
3 148 156 157
3 152 160 161
3 154 162 163
3 164 165 156
3 158 166 167
3 152 162 153
3 154 168 159
3 157 165 166
3 161 169 170
3 163 171 172
3 165 173 174
3 167 175 176
3 161 171 162
3 163 177 168
3 166 174 175
3 169 178 170
3 172 179 180
3 173 181 174
3 176 182 183
3 170 179 171
3 184 185 173
3 175 181 182
3 186 187 188
3 189 190 191
3 185 192 181
3 183 193 194
3 186 190 195
3 196 197 185
3 182 192 193
3 188 198 199
3 191 200 201
3 197 202 192
3 194 203 204
3 188 200 190
3 191 205 206
3 193 202 203
3 199 207 208
3 201 209 210
3 211 212 202
3 203 213 204
3 199 209 200
3 201 214 205
3 203 212 215
3 208 216 217
3 210 218 219
3 220 221 212
3 215 222 213
3 208 218 209
3 214 219 223
3 215 221 224
3 217 225 226
3 219 227 228
3 229 230 221
3 224 231 222
3 217 227 218
3 219 232 223
3 224 230 233
3 226 234 235
3 228 236 237
3 238 239 230
3 231 240 241
3 226 236 227
3 232 237 242
3 233 239 240
3 235 243 244
3 237 245 246
3 247 248 239
3 241 249 250
3 235 245 236
3 237 251 242
3 239 249 240
3 244 252 253
3 246 254 255
3 248 256 257
3 250 258 259
3 244 254 245
3 260 256 261
3 249 257 258
3 252 262 253
3 255 263 264
3 257 265 266
3 259 267 268
3 253 263 254
3 269 265 256
3 258 266 267
3 262 270 271
3 264 272 273
3 265 274 266
3 267 275 268
3 262 272 263
3 264 276 277
3 266 278 267
3 271 279 280
3 273 281 282
3 274 283 284
3 275 285 286
3 271 281 272
3 273 287 276
3 278 284 285
3 0 2 288
3 2 23 288
3 23 32 288
3 32 40 288
3 40 51 288
3 51 60 288
3 60 69 288
3 69 78 288
3 78 86 288
3 86 96 288
3 96 105 288
3 105 114 288
3 114 122 288
3 122 131 288
3 131 141 288
3 141 149 288
3 149 158 288
3 158 167 288
3 167 176 288
3 176 183 288
3 183 194 288
3 194 204 288
3 204 213 288
3 213 222 288
3 222 231 288
3 231 241 288
3 241 250 288
3 250 259 288
3 259 268 288
3 268 275 288
3 275 286 288
3 279 11 280
3 281 13 282
3 283 9 284
3 285 0 286
3 280 3 281
3 282 6 287
3 284 10 285
3 286 0 288
3 10 1 0
3 11 4 3
3 13 7 6
3 15 1 9
3 289 12 11
3 3 5 13
3 290 14 9
3 12 16 4
3 5 18 7
3 14 20 15
3 1 22 2
3 4 17 5
3 7 19 8
3 15 21 1
3 16 25 17
3 18 27 19
3 20 29 21
3 22 31 23
3 26 27 17
3 19 28 24
3 21 30 22
3 291 34 25
3 27 35 28
3 29 37 30
3 31 39 32
3 26 34 27
3 292 41 29
3 30 38 31
3 293 43 42
3 52 46 45
3 37 48 38
3 39 50 40
3 44 43 52
3 294 48 41
3 38 49 39
3 293 53 43
3 46 55 47
3 48 57 49
3 50 59 51
3 54 55 43
3 56 61 47
3 49 58 50
3 53 63 54
3 55 65 56
3 295 67 57
3 59 68 60
3 64 65 54
3 56 66 61
3 58 67 59
3 63 71 64
3 65 73 66
3 295 75 67
3 68 77 69
3 72 73 64
3 66 74 70
3 67 76 68
3 71 80 72
3 73 82 74
3 75 84 76
3 88 86 77
3 81 82 72
3 83 87 74
3 76 85 77
3 80 89 81
3 82 91 83
3 84 93 85
3 88 95 86
3 90 91 81
3 83 92 87
3 94 95 85
3 89 98 90
3 91 100 92
3 93 102 94
3 95 104 96
3 99 100 90
3 101 106 92
3 94 103 95
3 98 107 99
3 100 109 101
3 102 111 103
3 104 113 105
3 108 109 99
3 296 115 102
3 103 112 104
3 107 116 108
3 109 118 110
3 123 120 111
3 113 121 114
3 117 118 108
3 297 123 115
3 112 120 113
3 116 124 117
3 118 126 119
3 123 128 120
3 121 130 122
3 125 126 117
3 119 127 132
3 129 130 120
3 124 134 125
3 126 136 127
3 128 138 129
3 130 140 131
3 135 136 125
3 127 137 133
3 129 139 130
3 134 143 135
3 136 145 137
3 155 147 138
3 140 148 141
3 144 145 135
3 137 146 142
3 147 148 139
3 143 151 144
3 145 153 146
3 164 156 155
3 148 157 149
3 152 153 144
3 154 159 146
3 147 156 148
3 151 160 152
3 153 162 154
3 298 165 164
3 157 166 158
3 161 162 152
3 163 168 154
3 156 165 157
3 160 169 161
3 162 171 163
3 298 173 165
3 166 175 167
3 170 171 161
3 172 177 163
3 165 174 166
3 299 178 169
3 171 179 172
3 185 181 173
3 175 182 176
3 178 179 170
3 196 185 184
3 174 181 175
3 300 187 186
3 195 190 189
3 197 192 185
3 182 193 183
3 188 190 186
3 301 197 196
3 181 192 182
3 187 198 188
3 190 200 191
3 211 202 197
3 193 203 194
3 199 200 188
3 201 205 191
3 192 202 193
3 198 207 199
3 200 209 201
3 220 212 211
3 215 213 203
3 208 209 199
3 210 214 201
3 202 212 203
3 207 216 208
3 209 218 210
3 229 221 220
3 224 222 215
3 217 218 208
3 210 219 214
3 212 221 215
3 216 225 217
3 218 227 219
3 238 230 229
3 233 231 224
3 226 227 217
3 228 232 219
3 221 230 224
3 225 234 226
3 227 236 228
3 247 239 238
3 233 240 231
3 235 236 226
3 228 237 232
3 230 239 233
3 234 243 235
3 236 245 237
3 261 248 247
3 240 249 241
3 244 245 235
3 246 251 237
3 248 249 239
3 243 252 244
3 245 254 246
3 261 256 248
3 249 258 250
3 253 254 244
3 269 256 260
3 248 257 249
3 302 262 252
3 254 263 255
3 256 265 257
3 258 267 259
3 262 263 253
3 303 265 269
3 257 266 258
3 302 270 262
3 263 272 264
3 304 274 265
3 278 275 267
3 271 272 262
3 273 276 264
3 274 278 266
3 270 279 271
3 272 281 273
3 304 283 274
3 278 285 275
3 280 281 271
3 282 287 273
3 274 284 278
3 289 11 279
3 3 13 281
3 290 9 283
3 10 0 285
3 11 3 280
3 13 6 282
3 9 10 284