ply
format ascii 1.0
comment Created by Blender 2.74 (sub 0) - www.blender.org, source file: 'tree-1.blend'
element vertex 177
property float x
property float y
property float z
property float nx
property float ny
property float nz
property uchar red
property uchar green
property uchar blue
element face 59
property list uchar uint vertex_indices
end_header
-0.347785 1.842841 -0.472775 -0.059647 0.719729 0.691688 135 161 53
0.028608 1.406584 0.013627 -0.059647 0.719729 0.691688 147 156 53
0.136634 1.965281 -0.558405 -0.059647 0.719729 0.691688 125 166 53
-0.347785 1.842841 -0.472775 -0.295000 0.586500 0.754316 125 166 53
-0.511379 1.314252 -0.125762 -0.295000 0.586500 0.754316 125 166 53
0.028608 1.406584 0.013627 -0.295000 0.586500 0.754316 147 156 53
0.028608 1.406584 0.013627 0.759598 0.387757 0.522164 145 157 53
0.430008 1.349686 -0.528041 0.759598 0.387757 0.522164 125 166 53
0.136634 1.965281 -0.558405 0.759598 0.387757 0.522164 127 167 55
0.430008 1.349686 -0.528041 0.878370 0.406177 -0.251965 125 166 53
0.189774 1.498858 -1.125044 0.878370 0.406177 -0.251965 125 166 53
0.136634 1.965281 -0.558405 0.878370 0.406177 -0.251965 127 167 55
0.136634 1.965281 -0.558405 0.215744 0.763728 -0.608420 125 166 53
0.189774 1.498858 -1.125044 0.215744 0.763728 -0.608420 125 166 53
-0.430280 1.720935 -1.066148 0.215744 0.763728 -0.608420 125 166 53
-0.430280 1.720935 -1.066148 -0.268128 0.950344 -0.157967 125 166 53
-0.347785 1.842841 -0.472775 -0.268128 0.950344 -0.157967 125 166 53
0.136634 1.965281 -0.558405 -0.268128 0.950344 -0.157967 125 166 53
-0.430280 1.720935 -1.066148 -0.547572 0.831385 -0.094677 125 166 53
-0.747177 1.572810 -0.534074 -0.547572 0.831385 -0.094677 125 166 53
-0.347785 1.842841 -0.472775 -0.547572 0.831385 -0.094677 125 166 53
-0.747177 1.572810 -0.534074 -0.491389 0.579126 0.650500 125 166 53
-0.511379 1.314252 -0.125762 -0.491389 0.579126 0.650500 125 166 53
-0.347785 1.842841 -0.472775 -0.491389 0.579126 0.650500 125 166 53
-0.511379 1.314252 -0.125762 -0.135682 -0.498798 0.856032 134 162 53
-0.018421 1.016661 -0.221030 -0.135682 -0.498798 0.856032 125 166 53
0.028608 1.406584 0.013627 -0.135682 -0.498798 0.856032 147 156 53
-0.613165 1.326768 -0.842737 -0.867362 0.130178 -0.480350 125 166 53
-0.747177 1.572810 -0.534074 -0.867362 0.130178 -0.480350 125 166 53
-0.430280 1.720935 -1.066148 -0.867362 0.130178 -0.480350 125 166 53
-0.018421 1.016661 -0.221030 0.704798 -0.426265 0.567061 125 166 53
0.430008 1.349686 -0.528041 0.704798 -0.426265 0.567061 125 166 53
0.028608 1.406584 0.013627 0.704798 -0.426265 0.567061 136 161 53
-0.018421 1.016661 -0.221030 0.643096 -0.756532 0.118687 125 166 53
0.029121 0.966708 -0.797040 0.643096 -0.756532 0.118687 125 166 53
0.430008 1.349686 -0.528041 0.643096 -0.756532 0.118687 125 166 53
0.430008 1.349686 -0.528041 0.757756 -0.492568 -0.427998 125 166 53
0.029121 0.966708 -0.797040 0.757756 -0.492568 -0.427998 125 166 53
0.189774 1.498858 -1.125044 0.757756 -0.492568 -0.427998 125 166 53
0.029121 0.966708 -0.797040 0.452196 -0.562938 -0.691824 125 166 53
-0.235532 1.188454 -1.150460 0.452196 -0.562938 -0.691824 125 166 53
0.189774 1.498858 -1.125044 0.452196 -0.562938 -0.691824 125 166 53
0.189774 1.498858 -1.125044 -0.043565 0.140678 -0.989096 125 166 53
-0.235532 1.188454 -1.150460 -0.043565 0.140678 -0.989096 125 166 53
-0.430280 1.720935 -1.066148 -0.043565 0.140678 -0.989096 125 166 53
-0.235532 1.188454 -1.150460 -0.653257 -0.120567 -0.747475 125 166 53
-0.613165 1.326768 -0.842737 -0.653257 -0.120567 -0.747475 125 166 53
-0.430280 1.720935 -1.066148 -0.653257 -0.120567 -0.747475 125 166 53
-0.476359 0.955140 -0.696968 -0.386176 -0.791401 0.473870 125 166 53
-0.018421 1.016661 -0.221030 -0.386176 -0.791401 0.473870 125 166 53
-0.511379 1.314252 -0.125762 -0.386176 -0.791401 0.473870 134 162 53
-0.476359 0.955140 -0.696968 0.040522 -0.995149 0.089646 125 166 53
0.029121 0.966708 -0.797040 0.040522 -0.995149 0.089646 125 166 53
-0.018421 1.016661 -0.221030 0.040522 -0.995149 0.089646 125 166 53
-0.613165 1.326768 -0.842737 -0.920677 -0.377640 -0.098705 125 166 53
-0.476359 0.955140 -0.696968 -0.920677 -0.377640 -0.098705 125 166 53
-0.747177 1.572810 -0.534074 -0.920677 -0.377640 -0.098705 125 166 53
-0.747177 1.572810 -0.534074 -0.869641 -0.440223 0.223448 125 166 53
-0.476359 0.955140 -0.696968 -0.869641 -0.440223 0.223448 125 166 53
-0.511379 1.314252 -0.125762 -0.869641 -0.440223 0.223448 125 166 53
0.029121 0.966708 -0.797040 -0.076724 -0.869434 -0.488055 125 166 53
-0.476359 0.955140 -0.696968 -0.076724 -0.869434 -0.488055 125 166 53
-0.235532 1.188454 -1.150460 -0.076724 -0.869434 -0.488055 125 166 53
-0.476359 0.955140 -0.696968 -0.654254 -0.472475 -0.590524 125 166 53
-0.613165 1.326768 -0.842737 -0.654254 -0.472475 -0.590524 125 166 53
-0.235532 1.188454 -1.150460 -0.654254 -0.472475 -0.590524 125 166 53
0.148231 -0.079714 -0.054823 0.943378 0.178193 -0.279795 156 120 61
-0.048786 0.981688 -0.043125 0.943378 0.178193 -0.279795 156 120 61
-0.004545 0.954426 0.088678 0.943378 0.178193 -0.279795 156 120 61
-0.141803 -0.079375 -0.066157 0.038992 -0.031065 -0.998756 156 120 61
0.004164 0.291986 -0.072009 0.038992 -0.031065 -0.998756 156 119 61
0.148231 -0.079714 -0.054823 0.038992 -0.031065 -0.998756 156 120 61
0.148231 -0.079714 -0.054823 0.272235 0.061115 -0.960288 156 120 61
0.004164 0.291986 -0.072009 0.272235 0.061115 -0.960288 156 119 61
-0.048786 0.981688 -0.043125 0.272235 0.061115 -0.960288 155 125 60
0.004164 0.291986 -0.072009 -0.968195 -0.064204 -0.241817 156 119 61
-0.070634 1.068674 0.021256 -0.968195 -0.064204 -0.241817 153 133 59
-0.048786 0.981688 -0.043125 -0.968195 -0.064204 -0.241817 155 125 60
0.003702 -0.081185 0.042587 0.558826 -0.032430 0.828651 156 120 61
0.148231 -0.079714 -0.054823 0.558826 -0.032430 0.828651 156 120 61
-0.004545 0.954426 0.088678 0.558826 -0.032430 0.828651 151 141 57
-0.004545 0.954426 0.088678 0.866936 -0.342728 -0.361883 156 120 61
-0.048786 0.981688 -0.043125 0.866936 -0.342728 -0.361883 156 120 61
0.015035 1.083099 0.013722 0.866936 -0.342728 -0.361883 156 120 61
-0.141803 -0.079375 -0.066157 -0.579234 0.239950 0.779045 156 120 61
0.003702 -0.081185 0.042587 -0.579234 0.239950 0.779045 156 120 61
0.004164 0.291986 -0.072009 -0.579234 0.239950 0.779045 156 119 61
0.003702 -0.081185 0.042587 -0.999635 -0.006797 -0.026162 156 120 61
-0.004545 0.954426 0.088678 -0.999635 -0.006797 -0.026162 151 141 57
0.004164 0.291986 -0.072009 -0.999635 -0.006797 -0.026162 156 119 61
0.004164 0.291986 -0.072009 -0.818540 -0.145557 0.555703 156 119 61
-0.004545 0.954426 0.088678 -0.818540 -0.145557 0.555703 151 141 57
-0.070634 1.068674 0.021256 -0.818540 -0.145557 0.555703 153 133 59
0.015035 1.083099 0.013722 0.737194 -0.088431 -0.669869 154 127 59
-0.048786 0.981688 -0.043125 0.737194 -0.088431 -0.669869 155 123 60
-0.234891 1.204760 -0.277383 0.737194 -0.088431 -0.669869 156 119 61
0.015035 1.083099 0.013722 -0.161380 0.985528 0.051876 176 181 106
-0.070634 1.068674 0.021256 -0.161380 0.985528 0.051876 153 133 59
0.185856 1.097455 0.272404 -0.161380 0.985528 0.051876 147 156 53
-0.002309 1.913981 0.315845 -0.475594 0.829180 0.293721 147 156 53
0.118311 1.778257 0.894305 -0.475594 0.829180 0.293721 147 156 53
0.408571 2.058543 0.573042 -0.475594 0.829180 0.293721 147 156 53
-0.002309 1.913981 0.315845 -0.764594 0.573548 0.294005 147 156 53
-0.338841 1.380803 0.480784 -0.764594 0.573548 0.294005 147 156 53
0.118311 1.778257 0.894305 -0.764594 0.573548 0.294005 147 156 53
0.118311 1.778257 0.894305 0.417327 0.463661 0.781573 125 166 53
0.624464 1.458950 0.813468 0.417327 0.463661 0.781573 146 156 53
0.408571 2.058543 0.573042 0.417327 0.463661 0.781573 127 167 55
0.624464 1.458950 0.813468 0.941485 0.247063 -0.229274 147 156 53
0.550210 1.232596 0.264635 0.941485 0.247063 -0.229274 147 156 53
0.408571 2.058543 0.573042 0.941485 0.247063 -0.229274 147 156 53
0.408571 2.058543 0.573042 0.987332 0.147202 0.059220 147 156 53
0.550210 1.232596 0.264635 0.987332 0.147202 0.059220 147 156 53
0.456173 1.901105 0.170740 0.987332 0.147202 0.059220 149 156 55
0.456173 1.901105 0.170740 -0.091892 0.923553 -0.372297 147 156 53
-0.002309 1.913981 0.315845 -0.091892 0.923553 -0.372297 154 156 59
0.408571 2.058543 0.573042 -0.091892 0.923553 -0.372297 147 156 53
0.456173 1.901105 0.170740 -0.067367 0.952384 -0.297366 147 156 53
0.288549 1.778239 -0.184794 -0.067367 0.952384 -0.297366 147 156 53
-0.002309 1.913981 0.315845 -0.067367 0.952384 -0.297366 154 156 59
0.288549 1.778239 -0.184794 -0.393081 0.803908 -0.446340 147 156 53
-0.247098 1.625739 0.012268 -0.393081 0.803908 -0.446340 148 156 54
-0.002309 1.913981 0.315845 -0.393081 0.803908 -0.446340 147 156 53
-0.247098 1.625739 0.012268 -0.819520 0.557839 0.131156 148 156 54
-0.338841 1.380803 0.480784 -0.819520 0.557839 0.131156 147 156 53
-0.002309 1.913981 0.315845 -0.819520 0.557839 0.131156 147 156 53
-0.338841 1.380803 0.480784 -0.587016 -0.152114 0.795157 147 156 53
0.098349 1.107084 0.751172 -0.587016 -0.152114 0.795157 147 156 53
0.118311 1.778257 0.894305 -0.587016 -0.152114 0.795157 147 156 53
0.066849 1.385596 -0.117286 -0.354966 0.039836 -0.934030 143 158 53
-0.247098 1.625739 0.012268 -0.354966 0.039836 -0.934030 152 157 59
0.288549 1.778239 -0.184794 -0.354966 0.039836 -0.934030 147 156 53
0.098349 1.107084 0.751172 0.024158 -0.209194 0.977576 147 156 53
0.624464 1.458950 0.813468 0.024158 -0.209194 0.977576 147 156 53
0.118311 1.778257 0.894305 0.024158 -0.209194 0.977576 147 156 53
0.098349 1.107084 0.751172 0.473795 -0.780599 0.407656 127 165 53
0.391877 0.983220 0.172839 0.473795 -0.780599 0.407656 125 166 53
0.624464 1.458950 0.813468 0.473795 -0.780599 0.407656 146 156 53
0.624464 1.458950 0.813468 0.817001 -0.563602 0.121909 147 156 53
0.391877 0.983220 0.172839 0.817001 -0.563602 0.121909 134 161 53
0.550210 1.232596 0.264635 0.817001 -0.563602 0.121909 147 156 53
0.550210 1.232596 0.264635 0.894047 0.063476 -0.443454 147 156 53
0.288549 1.778239 -0.184794 0.894047 0.063476 -0.443454 141 161 56
0.456173 1.901105 0.170740 0.894047 0.063476 -0.443454 149 156 55
0.550210 1.232596 0.264635 0.714475 -0.207690 -0.668125 147 156 53
0.391877 0.983220 0.172839 0.714475 -0.207690 -0.668125 134 161 53
0.288549 1.778239 -0.184794 0.714475 -0.207690 -0.668125 141 161 56
0.391877 0.983220 0.172839 0.348456 -0.346492 -0.870931 134 161 53
0.066849 1.385596 -0.117286 0.348456 -0.346492 -0.870931 125 166 53
0.288549 1.778239 -0.184794 0.348456 -0.346492 -0.870931 141 161 56
0.081924 1.022236 0.094946 -0.578653 -0.806874 0.118809 144 157 53
0.098349 1.107084 0.751172 -0.578653 -0.806874 0.118809 147 156 53
-0.338841 1.380803 0.480784 -0.578653 -0.806874 0.118809 147 156 53
0.081924 1.022236 0.094946 -0.156042 -0.979092 0.130499 144 157 53
0.391877 0.983220 0.172839 -0.156042 -0.979092 0.130499 134 161 53
0.098349 1.107084 0.751172 -0.156042 -0.979092 0.130499 147 156 53
0.066849 1.385596 -0.117286 -0.602077 -0.421171 -0.678320 143 158 53
0.081924 1.022236 0.094946 -0.602077 -0.421171 -0.678320 144 157 53
-0.247098 1.625739 0.012268 -0.602077 -0.421171 -0.678320 148 156 54
-0.247098 1.625739 0.012268 -0.778999 -0.479973 -0.403467 148 156 54
0.081924 1.022236 0.094946 -0.778999 -0.479973 -0.403467 144 157 53
-0.338841 1.380803 0.480784 -0.778999 -0.479973 -0.403467 147 156 53
0.081924 1.022236 0.094946 0.152996 -0.493673 -0.856083 125 166 53
0.066849 1.385596 -0.117286 0.152996 -0.493673 -0.856083 125 166 53
0.391877 0.983220 0.172839 0.152996 -0.493673 -0.856083 134 161 53
-0.048786 0.981688 -0.043125 -0.861178 -0.423905 0.280495 155 125 60
-0.070634 1.068674 0.021256 -0.861178 -0.423905 0.280495 153 133 59
-0.234891 1.204760 -0.277383 -0.861178 -0.423905 0.280495 156 119 61
-0.070634 1.068674 0.021256 -0.700448 0.015893 0.713527 153 133 59
-0.004545 0.954426 0.088678 -0.700448 0.015893 0.713527 151 141 57
0.185856 1.097455 0.272404 -0.700448 0.015893 0.713527 147 156 53
-0.070634 1.068674 0.021256 -0.107818 0.880959 0.460745 216 219 182
0.015035 1.083099 0.013722 -0.107818 0.880959 0.460745 181 182 117
-0.234891 1.204760 -0.277383 -0.107818 0.880959 0.460745 156 119 61
-0.004545 0.954426 0.088678 0.774003 -0.402508 -0.488780 156 120 61
0.015035 1.083099 0.013722 0.774003 -0.402508 -0.488780 156 120 61
0.185856 1.097455 0.272404 0.774003 -0.402508 -0.488780 150 150 55
3 0 1 2
3 3 4 5
3 6 7 8
3 9 10 11
3 12 13 14
3 15 16 17
3 18 19 20
3 21 22 23
3 24 25 26
3 27 28 29
3 30 31 32
3 33 34 35
3 36 37 38
3 39 40 41
3 42 43 44
3 45 46 47
3 48 49 50
3 51 52 53
3 54 55 56
3 57 58 59
3 60 61 62
3 63 64 65
3 66 67 68
3 69 70 71
3 72 73 74
3 75 76 77
3 78 79 80
3 81 82 83
3 84 85 86
3 87 88 89
3 90 91 92
3 93 94 95
3 96 97 98
3 99 100 101
3 102 103 104
3 105 106 107
3 108 109 110
3 111 112 113
3 114 115 116
3 117 118 119
3 120 121 122
3 123 124 125
3 126 127 128
3 129 130 131
3 132 133 134
3 135 136 137
3 138 139 140
3 141 142 143
3 144 145 146
3 147 148 149
3 150 151 152
3 153 154 155
3 156 157 158
3 159 160 161
3 162 163 164
3 165 166 167
3 168 169 170
3 171 172 173
3 174 175 176
