ply
format ascii 1.0
comment Created by Blender 2.74 (sub 0) - www.blender.org, source file: 'tree.blend'
element vertex 72
property float x
property float y
property float z
property float nx
property float ny
property float nz
property uchar red
property uchar green
property uchar blue
element face 32
property list uchar uint vertex_indices
end_header
0.187101 0.689249 0.187101 0.882751 0.469841 -0.000000 153 163 65
0.400000 0.289249 0.400000 0.882751 0.469841 -0.000000 87 104 54
0.400000 0.289249 -0.400000 0.882751 0.469841 -0.000000 87 104 54
-0.187101 0.689249 0.187101 0.000000 0.469841 0.882751 152 162 65
-0.400000 0.289249 0.400000 0.000000 0.469841 0.882751 87 104 54
0.400000 0.289249 0.400000 0.000000 0.469841 0.882751 87 104 54
-0.187101 0.689249 -0.187101 -0.882751 0.469841 0.000000 153 163 65
-0.400000 0.289249 -0.400000 -0.882751 0.469841 0.000000 87 104 54
-0.400000 0.289249 0.400000 -0.882751 0.469841 0.000000 87 104 54
0.187101 0.689249 -0.187101 0.000000 0.469841 -0.882751 153 163 65
0.400000 0.289249 -0.400000 0.000000 0.469841 -0.882751 87 104 54
-0.400000 0.289249 -0.400000 0.000000 0.469841 -0.882751 87 104 54
0.400000 0.289249 0.400000 0.000000 -1.000000 0.000000 87 104 54
-0.400000 0.289249 0.400000 0.000000 -1.000000 0.000000 87 104 54
-0.400000 0.289249 -0.400000 0.000000 -1.000000 0.000000 87 104 54
-0.187101 0.689249 0.187101 0.000000 1.000000 -0.000000 0 166 25
0.187101 0.689249 0.187101 0.000000 1.000000 -0.000000 0 166 25
0.187101 0.689249 -0.187101 0.000000 1.000000 -0.000000 0 166 25
-0.187101 0.689249 0.187101 -0.882751 0.469841 0.000000 153 163 65
-0.187101 0.689249 -0.187101 0.000000 0.469841 -0.882751 153 163 65
-0.187101 0.689249 -0.187101 0.000000 1.000000 0.000000 2 166 26
0.010294 1.322643 -0.010290 0.000000 0.437256 -0.899337 153 163 65
0.217472 0.896690 -0.217388 0.000000 0.437256 -0.899337 87 104 54
-0.217472 0.896690 -0.217388 0.000000 0.437256 -0.899337 88 105 54
0.140848 0.970752 0.140794 0.913559 0.406707 -0.000000 153 163 65
0.301116 0.610752 0.301000 0.913559 0.406707 -0.000000 87 104 54
0.301116 0.610752 -0.301000 0.913559 0.406707 -0.000000 87 104 54
0.140848 0.970752 0.140794 -0.000000 0.406576 0.913617 152 162 65
-0.140848 0.970752 0.140794 -0.000000 0.406576 0.913617 153 163 65
-0.301116 0.610752 0.301000 -0.000000 0.406576 0.913617 87 104 54
-0.140848 0.970752 -0.140794 -0.913559 0.406707 0.000000 153 163 65
-0.301116 0.610752 -0.301000 -0.913559 0.406707 0.000000 87 104 54
-0.301116 0.610752 0.301000 -0.913559 0.406707 0.000000 87 104 54
0.140848 0.970752 -0.140794 0.000000 0.406576 -0.913617 153 163 65
0.301116 0.610752 -0.301000 0.000000 0.406576 -0.913617 87 104 54
-0.301116 0.610752 -0.301000 0.000000 0.406576 -0.913617 87 104 54
-0.140848 0.970752 0.140794 -0.913559 0.406707 0.000000 135 148 62
-0.140848 0.970752 -0.140794 0.000000 0.406576 -0.913617 153 163 65
0.140848 0.970752 -0.140794 0.000000 0.406576 -0.913617 152 162 65
-0.100000 0.339249 0.100000 -1.000000 0.000000 -0.000001 138 75 27
-0.100000 0.339249 -0.100000 -1.000000 0.000000 -0.000001 125 83 34
-0.100000 0.000000 -0.100000 -1.000000 0.000000 -0.000001 74 40 10
-0.100000 0.339249 -0.100000 0.000000 0.000000 -1.000000 138 75 27
0.100000 0.339249 -0.100000 0.000000 0.000000 -1.000000 138 75 27
0.100000 0.000000 -0.100000 0.000000 0.000000 -1.000000 82 44 12
0.100000 0.000000 -0.100000 1.000000 -0.000000 0.000000 104 56 18
0.100000 0.339249 -0.100000 1.000000 -0.000000 0.000000 138 75 27
0.100000 0.339249 0.100000 1.000000 -0.000000 0.000000 138 75 27
-0.100000 0.000000 0.100000 -0.000000 0.000000 1.000000 74 40 10
0.100000 0.000000 0.100000 -0.000000 0.000000 1.000000 76 41 10
0.100000 0.339249 0.100000 -0.000000 0.000000 1.000000 138 75 27
-0.100000 0.000000 0.100000 -1.000000 -0.000000 0.000000 85 46 13
-0.100000 0.339249 0.100000 -1.000000 -0.000000 0.000000 138 75 27
-0.100000 0.000000 -0.100000 -1.000000 -0.000000 0.000000 74 40 10
-0.100000 0.000000 -0.100000 0.000000 -0.000000 -1.000000 75 40 10
0.100000 0.000000 0.100000 1.000000 -0.000000 0.000000 78 42 11
-0.100000 0.339249 0.100000 -0.000000 0.000000 1.000000 138 75 27
0.187101 0.689249 -0.187101 0.882751 0.469841 0.000000 145 156 64
0.187101 0.689249 0.187101 -0.000000 0.469841 0.882751 153 163 65
0.400000 0.289249 -0.400000 0.000000 -1.000000 0.000000 87 104 54
0.140848 0.970752 -0.140794 0.913559 0.406707 0.000000 150 160 64
0.301116 0.610752 0.301000 0.000000 0.406576 0.913617 87 104 54
0.140848 0.970752 0.140794 0.000000 0.406576 0.913617 153 163 65
0.010294 1.322643 -0.010290 0.899271 0.437392 -0.000000 153 163 65
0.217472 0.896690 0.217388 0.899271 0.437392 -0.000000 88 105 54
0.217472 0.896690 -0.217388 0.899271 0.437392 -0.000000 87 104 54
0.010294 1.322643 -0.010290 0.000000 0.471399 0.881920 153 163 65
-0.217472 0.896690 0.217388 0.000000 0.471399 0.881920 92 108 54
0.217472 0.896690 0.217388 0.000000 0.471399 0.881920 88 105 54
0.010294 1.322643 -0.010290 -0.881845 0.471540 0.000000 153 163 65
-0.217472 0.896690 -0.217388 -0.881845 0.471540 0.000000 87 104 54
-0.217472 0.896690 0.217388 -0.881845 0.471540 0.000000 87 104 54
3 0 1 2
3 3 4 5
3 6 7 8
3 9 10 11
3 12 13 14
3 15 16 17
3 18 6 8
3 19 9 11
3 20 15 17
3 21 22 23
3 24 25 26
3 27 28 29
3 30 31 32
3 33 34 35
3 36 30 32
3 37 38 35
3 39 40 41
3 42 43 44
3 45 46 47
3 48 49 50
3 51 52 53
3 54 42 44
3 55 45 47
3 56 48 50
3 57 0 2
3 58 3 5
3 59 12 14
3 60 24 26
3 61 62 29
3 63 64 65
3 66 67 68
3 69 70 71
