ply
format ascii 1.0
comment Created by Blender 2.74 (sub 0) - www.blender.org, source file: 'tree-2.blend'
element vertex 90
property float x
property float y
property float z
property float nx
property float ny
property float nz
property uchar red
property uchar green
property uchar blue
element face 30
property list uchar uint vertex_indices
end_header
-0.229251 1.651628 0.046647 -0.112679 0.946120 0.303579 125 166 53
0.231679 1.599291 0.380838 -0.112679 0.946120 0.303579 125 166 53
0.220000 1.746586 -0.082550 -0.112679 0.946120 0.303579 125 166 53
-0.229251 1.651628 0.046647 -0.324182 0.758104 0.565848 125 166 53
-0.357753 1.257821 0.500635 -0.324182 0.758104 0.565848 125 166 53
0.231679 1.599291 0.380838 -0.324182 0.758104 0.565848 125 166 53
0.231679 1.599291 0.380838 0.856693 0.497432 0.136524 125 166 53
0.510736 1.199426 0.086676 0.856693 0.497432 0.136524 125 166 53
0.220000 1.746586 -0.082550 0.856693 0.497432 0.136524 127 167 55
0.510736 1.199426 0.086676 0.857355 0.334587 -0.391144 125 166 53
0.258555 1.181776 -0.481182 0.857355 0.334587 -0.391144 125 166 53
0.220000 1.746586 -0.082550 0.857355 0.334587 -0.391144 127 167 55
0.220000 1.746586 -0.082550 0.170606 0.575921 -0.799505 125 166 53
0.258555 1.181776 -0.481182 0.170606 0.575921 -0.799505 125 166 53
-0.329720 1.390705 -0.456213 0.170606 0.575921 -0.799505 125 166 53
-0.329720 1.390705 -0.456213 -0.296863 0.870568 -0.392407 125 166 53
-0.229251 1.651628 0.046647 -0.296863 0.870568 -0.392407 125 166 53
0.220000 1.746586 -0.082550 -0.296863 0.870568 -0.392407 125 166 53
-0.329720 1.390705 -0.456213 -0.570953 0.769795 -0.285356 125 166 53
-0.600940 1.386860 0.076086 -0.570953 0.769795 -0.285356 125 166 53
-0.229251 1.651628 0.046647 -0.570953 0.769795 -0.285356 125 166 53
-0.600940 1.386860 0.076086 -0.477981 0.725983 0.494452 125 166 53
-0.357753 1.257821 0.500635 -0.477981 0.725983 0.494452 125 166 53
-0.229251 1.651628 0.046647 -0.477981 0.725983 0.494452 125 166 53
-0.357753 1.257821 0.500635 0.136947 0.109019 0.984561 125 166 53
0.108584 0.969636 0.467680 0.136947 0.109019 0.984561 125 166 53
0.231679 1.599291 0.380838 0.136947 0.109019 0.984561 125 166 53
-0.481368 1.087665 -0.147610 -0.890836 -0.016566 -0.454023 125 166 53
-0.600940 1.386860 0.076086 -0.890836 -0.016566 -0.454023 125 166 53
-0.329720 1.390705 -0.456213 -0.890836 -0.016566 -0.454023 125 166 53
0.108584 0.969636 0.467680 0.698633 -0.038040 0.714468 125 166 53
0.510736 1.199426 0.086676 0.698633 -0.038040 0.714468 125 166 53
0.231679 1.599291 0.380838 0.698633 -0.038040 0.714468 125 166 53
0.108584 0.969636 0.467680 0.665293 -0.689467 0.286392 125 166 53
0.132164 0.779993 -0.043647 0.665293 -0.689467 0.286392 125 166 53
0.510736 1.199426 0.086676 0.665293 -0.689467 0.286392 125 166 53
0.510736 1.199426 0.086676 0.751106 -0.579893 -0.315537 125 166 53
0.132164 0.779993 -0.043647 0.751106 -0.579893 -0.315537 125 166 53
0.258555 1.181776 -0.481182 0.751106 -0.579893 -0.315537 125 166 53
0.132164 0.779993 -0.043647 0.436751 -0.721904 -0.536752 125 166 53
-0.135200 0.889137 -0.407992 0.436751 -0.721904 -0.536752 125 166 53
0.258555 1.181776 -0.481182 0.436751 -0.721904 -0.536752 125 166 53
0.258555 1.181776 -0.481182 -0.087736 -0.128990 -0.987757 125 166 53
-0.135200 0.889137 -0.407992 -0.087736 -0.128990 -0.987757 125 166 53
-0.329720 1.390705 -0.456213 -0.087736 -0.128990 -0.987757 125 166 53
-0.135200 0.889137 -0.407992 -0.680651 -0.327002 -0.655579 125 166 53
-0.481368 1.087665 -0.147610 -0.680651 -0.327002 -0.655579 125 166 53
-0.329720 1.390705 -0.456213 -0.680651 -0.327002 -0.655579 125 166 53
-0.338815 0.788948 0.071736 -0.347423 -0.640511 0.684867 125 166 53
0.108584 0.969636 0.467680 -0.347423 -0.640511 0.684867 125 166 53
-0.357753 1.257821 0.500635 -0.347423 -0.640511 0.684867 125 166 53
-0.338815 0.788948 0.071736 0.067901 -0.934403 0.349686 125 166 53
0.132164 0.779993 -0.043647 0.067901 -0.934403 0.349686 125 166 53
0.108584 0.969636 0.467680 0.067901 -0.934403 0.349686 125 166 53
-0.481368 1.087665 -0.147610 -0.914675 -0.401343 0.047878 125 166 53
-0.338815 0.788948 0.071736 -0.914675 -0.401343 0.047878 125 166 53
-0.600940 1.386860 0.076086 -0.914675 -0.401343 0.047878 125 166 53
-0.600940 1.386860 0.076086 -0.848993 -0.374909 0.372363 125 166 53
-0.338815 0.788948 0.071736 -0.848993 -0.374909 0.372363 125 166 53
-0.357753 1.257821 0.500635 -0.848993 -0.374909 0.372363 125 166 53
0.132164 0.779993 -0.043647 -0.075903 -0.969121 -0.234613 125 166 53
-0.338815 0.788948 0.071736 -0.075903 -0.969121 -0.234613 125 166 53
-0.135200 0.889137 -0.407992 -0.075903 -0.969121 -0.234613 125 166 53
-0.338815 0.788948 0.071736 -0.666459 -0.620988 -0.412562 125 166 53
-0.481368 1.087665 -0.147610 -0.666459 -0.620988 -0.412562 125 166 53
-0.135200 0.889137 -0.407992 -0.666459 -0.620988 -0.412562 125 166 53
-0.041097 -0.085539 -0.061755 -0.966003 0.003920 -0.258502 156 120 61
-0.070081 0.783395 0.059734 -0.966003 0.003920 -0.258502 156 120 60
-0.046871 0.846898 -0.026038 -0.966003 0.003920 -0.258502 156 120 61
0.109900 -0.082918 -0.028632 0.910462 0.152435 0.384476 156 120 61
-0.046871 0.846898 -0.026038 0.910462 0.152435 0.384476 156 120 61
-0.018878 0.444559 0.067190 0.910462 0.152435 0.384476 156 120 61
0.000000 -0.083782 0.096269 -0.967543 -0.020710 0.251857 156 120 61
-0.018878 0.444559 0.067190 -0.967543 -0.020710 0.251857 156 120 61
-0.041097 -0.085539 -0.061755 -0.967543 -0.020710 0.251857 156 120 61
-0.018878 0.444559 0.067190 -0.803787 -0.108591 0.584922 156 120 61
-0.070081 0.783395 0.059734 -0.803787 -0.108591 0.584922 156 120 60
-0.041097 -0.085539 -0.061755 -0.803787 -0.108591 0.584922 156 120 61
-0.018878 0.444559 0.067190 0.089800 0.035475 0.995328 156 120 61
0.025137 0.846101 0.048908 0.089800 0.035475 0.995328 156 120 61
-0.070081 0.783395 0.059734 0.089800 0.035475 0.995328 156 120 60
0.109900 -0.082918 -0.028632 0.213463 0.038714 -0.976184 156 120 61
-0.041097 -0.085539 -0.061755 0.213463 0.038714 -0.976184 156 120 61
-0.046871 0.846898 -0.026038 0.213463 0.038714 -0.976184 156 120 61
0.000000 -0.083782 0.096269 0.749044 0.063062 0.659512 156 120 61
0.109900 -0.082918 -0.028632 0.749044 0.063062 0.659512 156 120 61
-0.018878 0.444559 0.067190 0.749044 0.063062 0.659512 156 120 61
-0.018878 0.444559 0.067190 0.716148 -0.109884 -0.689245 156 120 61
-0.046871 0.846898 -0.026038 0.716148 -0.109884 -0.689245 156 120 61
0.025137 0.846101 0.048908 0.716148 -0.109884 -0.689245 156 120 61
3 0 1 2
3 3 4 5
3 6 7 8
3 9 10 11
3 12 13 14
3 15 16 17
3 18 19 20
3 21 22 23
3 24 25 26
3 27 28 29
3 30 31 32
3 33 34 35
3 36 37 38
3 39 40 41
3 42 43 44
3 45 46 47
3 48 49 50
3 51 52 53
3 54 55 56
3 57 58 59
3 60 61 62
3 63 64 65
3 66 67 68
3 69 70 71
3 72 73 74
3 75 76 77
3 78 79 80
3 81 82 83
3 84 85 86
3 87 88 89
