ply
format ascii 1.0
comment Created by Blender 2.74 (sub 0) - www.blender.org, source file: 'tree-3.blend'
element vertex 216
property float x
property float y
property float z
property float nx
property float ny
property float nz
property uchar red
property uchar green
property uchar blue
element face 76
property list uchar uint vertex_indices
end_header
-0.271540 1.528376 0.463581 -0.834373 -0.437055 0.335862 192 154 47
-0.320936 1.556929 0.378024 -0.834373 -0.437055 0.335862 192 154 47
-0.191308 1.144141 0.162895 -0.834373 -0.437055 0.335862 192 154 47
-0.222143 1.556929 0.378024 0.863130 0.018877 0.504628 192 154 47
-0.271540 1.528376 0.463581 0.863130 0.018877 0.504628 192 154 47
-0.173078 1.090685 0.311542 0.863130 0.018877 0.504628 192 154 47
-0.191308 1.144141 0.162895 0.000000 0.462162 -0.886795 192 154 47
-0.320936 1.556929 0.378024 0.000000 0.462162 -0.886795 192 154 47
-0.222143 1.556929 0.378024 0.000000 0.462162 -0.886795 192 154 47
-0.113344 -0.188112 -0.065439 0.132192 0.063294 -0.989201 192 134 53
-0.129524 0.256026 -0.039183 0.132192 0.063294 -0.989201 192 154 47
0.061809 0.251296 -0.013917 0.132192 0.063294 -0.989201 192 154 47
-0.129524 0.256026 -0.039183 0.392990 0.152659 -0.906782 192 154 47
-0.150451 0.708640 0.027946 0.392990 0.152659 -0.906782 191 153 48
0.000904 0.689126 0.090257 0.392990 0.152659 -0.906782 192 154 47
-0.150451 0.708640 0.027946 0.397560 0.305415 -0.865256 191 153 48
-0.191308 1.144141 0.162895 0.397560 0.305415 -0.865256 192 154 47
-0.045415 1.125189 0.223240 0.397560 0.305415 -0.865256 191 155 53
0.061809 0.251296 -0.013917 0.782064 0.093047 0.616213 192 154 47
-0.056060 0.235130 0.138118 0.782064 0.093047 0.616213 192 154 47
0.000000 -0.188112 0.130878 0.782064 0.093047 0.616213 192 130 55
0.000904 0.689126 0.090257 0.567705 0.015541 0.823086 192 154 47
-0.131260 0.653468 0.182087 0.567705 0.015541 0.823086 192 154 47
-0.056060 0.235130 0.138118 0.567705 0.015541 0.823086 192 154 47
-0.045415 1.125189 0.223240 0.591736 -0.176311 0.786615 191 153 48
-0.173078 1.090685 0.311542 0.591736 -0.176311 0.786615 192 154 47
-0.131260 0.653468 0.182087 0.591736 -0.176311 0.786615 192 154 47
-0.056060 0.235130 0.138118 -0.924704 -0.055949 0.376552 192 154 47
-0.129524 0.256026 -0.039183 -0.924704 -0.055949 0.376552 192 154 47
-0.113344 -0.188112 -0.065439 -0.924704 -0.055949 0.376552 192 130 55
-0.131260 0.653468 0.182087 -0.992934 -0.061005 0.101786 192 154 47
-0.150451 0.708640 0.027946 -0.992934 -0.061005 0.101786 192 154 47
-0.129524 0.256026 -0.039183 -0.992934 -0.061005 0.101786 192 154 47
-0.173078 1.090685 0.311542 -0.989922 -0.117409 0.079186 192 154 47
-0.191308 1.144141 0.162895 -0.989922 -0.117409 0.079186 192 154 47
-0.150451 0.708640 0.027946 -0.989922 -0.117409 0.079186 192 154 47
-0.173078 1.090685 0.311542 -0.972227 -0.231242 0.036079 192 154 47
-0.271540 1.528376 0.463581 -0.972227 -0.231242 0.036079 192 154 47
-0.191308 1.144141 0.162895 -0.972227 -0.231242 0.036079 192 154 47
-0.045415 1.125189 0.223240 0.578049 -0.055256 0.814129 191 153 48
-0.222143 1.556929 0.378024 0.578049 -0.055256 0.814129 192 154 47
-0.173078 1.090685 0.311542 0.578049 -0.055256 0.814129 192 154 47
-0.045415 1.125189 0.223240 0.390772 0.448202 -0.803998 191 155 53
-0.191308 1.144141 0.162895 0.390772 0.448202 -0.803998 192 154 47
-0.222143 1.556929 0.378024 0.390772 0.448202 -0.803998 192 154 47
0.113344 -0.188112 -0.065439 0.000000 0.116456 -0.993196 192 130 55
-0.113344 -0.188112 -0.065439 0.000000 0.116456 -0.993196 192 130 55
0.061809 0.251296 -0.013917 0.000000 0.116456 -0.993196 192 154 47
0.061809 0.251296 -0.013917 0.132860 0.246872 -0.959897 192 154 47
-0.129524 0.256026 -0.039183 0.132860 0.246872 -0.959897 192 154 47
0.000904 0.689126 0.090257 0.132860 0.246872 -0.959897 192 154 47
0.000904 0.689126 0.090257 0.395893 0.306083 -0.865784 192 154 47
-0.150451 0.708640 0.027946 0.395893 0.306083 -0.865784 191 153 48
-0.045415 1.125189 0.223240 0.395893 0.306083 -0.865784 191 155 53
0.113344 -0.188112 -0.065439 0.865228 0.042902 0.499540 192 130 55
0.061809 0.251296 -0.013917 0.865228 0.042902 0.499540 192 154 47
0.000000 -0.188112 0.130878 0.865228 0.042902 0.499540 192 130 55
0.061809 0.251296 -0.013917 0.791623 -0.035018 0.610006 192 154 47
0.000904 0.689126 0.090257 0.791623 -0.035018 0.610006 192 154 47
-0.056060 0.235130 0.138118 0.791623 -0.035018 0.610006 192 154 47
0.000904 0.689126 0.090257 0.593318 -0.176491 0.785382 192 154 47
-0.045415 1.125189 0.223240 0.593318 -0.176491 0.785382 191 153 48
-0.131260 0.653468 0.182087 0.593318 -0.176491 0.785382 192 154 47
0.000000 -0.188112 0.130878 -0.859520 -0.122337 0.496244 192 130 55
-0.056060 0.235130 0.138118 -0.859520 -0.122337 0.496244 192 154 47
-0.113344 -0.188112 -0.065439 -0.859520 -0.122337 0.496244 192 130 55
-0.056060 0.235130 0.138118 -0.913073 -0.201402 0.354591 192 154 47
-0.131260 0.653468 0.182087 -0.913073 -0.201402 0.354591 192 154 47
-0.129524 0.256026 -0.039183 -0.913073 -0.201402 0.354591 192 154 47
-0.131260 0.653468 0.182087 -0.989655 -0.118571 0.080773 192 154 47
-0.173078 1.090685 0.311542 -0.989655 -0.118571 0.080773 192 154 47
-0.150451 0.708640 0.027946 -0.989655 -0.118571 0.080773 192 154 47
0.458384 1.488583 0.538021 0.504706 0.659589 0.556969 123 155 76
0.263008 1.374042 0.850708 0.504706 0.659589 0.556969 123 155 76
0.580641 1.179102 0.793737 0.504706 0.659589 0.556969 123 155 76
-0.260274 1.567710 0.445028 -0.072636 0.950307 0.302723 123 155 76
-0.034290 1.485356 0.757777 -0.072636 0.950307 0.302723 123 155 76
0.203752 1.624910 0.376804 -0.072636 0.950307 0.302723 123 155 76
0.203752 1.624910 0.376804 0.190750 0.877239 0.440528 123 155 76
-0.034290 1.485356 0.757777 0.190750 0.877239 0.440528 123 155 76
0.263008 1.374042 0.850708 0.190750 0.877239 0.440528 123 155 76
-0.676445 1.434722 -0.147939 -0.763145 0.582857 -0.279082 123 155 76
-0.874551 1.128940 -0.244840 -0.763145 0.582857 -0.279082 123 155 76
-0.923240 1.096722 -0.178990 -0.763145 0.582857 -0.279082 123 155 76
-0.334198 1.589886 0.360651 -0.388334 0.908022 0.157143 123 155 76
-0.454318 1.594343 0.038055 -0.388334 0.908022 0.157143 123 155 76
-0.714568 1.422127 0.390037 -0.388334 0.908022 0.157143 123 155 76
-0.454318 1.594343 0.038055 -0.571599 0.820256 -0.021302 123 155 76
-0.676445 1.434722 -0.147939 -0.571599 0.820256 -0.021302 123 155 76
-0.890048 1.293375 0.140954 -0.571599 0.820256 -0.021302 123 155 76
-0.036273 1.724214 -0.164374 0.268630 0.940657 -0.207371 123 155 76
0.255358 1.696369 0.087102 0.268630 0.940657 -0.207371 123 155 76
0.349777 1.592282 -0.262739 0.268630 0.940657 -0.207371 123 155 76
-0.260274 1.567710 0.445028 -0.127007 0.958939 0.253587 123 155 76
-0.364798 1.561018 0.417983 -0.127007 0.958939 0.253587 123 155 76
-0.575574 1.449682 0.733434 -0.127007 0.958939 0.253587 123 155 76
0.072248 1.672679 0.361552 0.013296 0.995408 0.094796 162 196 73
0.255358 1.696369 0.087102 0.013296 0.995408 0.094796 162 196 73
-0.036273 1.724214 -0.164374 0.013296 0.995408 0.094796 162 196 73
-0.562337 1.267057 1.008908 -0.147065 0.538171 0.829906 123 155 76
-0.425956 0.983678 1.216838 -0.147065 0.538171 0.829906 123 155 76
-0.338952 0.988353 1.229225 -0.147065 0.538171 0.829906 123 155 76
-0.110524 1.474669 0.799641 -0.122947 0.824422 0.552460 162 196 73
-0.575574 1.449682 0.733434 -0.122947 0.824422 0.552460 162 196 73
-0.562337 1.267057 1.008908 -0.122947 0.824422 0.552460 162 196 73
-0.246396 1.586416 0.402797 -0.204695 0.918229 0.339050 123 155 76
0.072248 1.672679 0.361552 -0.204695 0.918229 0.339050 123 155 76
-0.283071 1.706604 0.055157 -0.204695 0.918229 0.339050 123 155 76
-0.334198 1.589886 0.360651 -0.155903 0.913168 0.376588 123 155 76
-0.364798 1.561018 0.417983 -0.155903 0.913168 0.376588 123 155 76
-0.260274 1.567710 0.445028 -0.155903 0.913168 0.376588 123 155 76
0.458384 1.488583 0.538021 -0.504705 -0.659589 -0.556970 123 155 76
0.625176 1.205210 0.722463 -0.504705 -0.659589 -0.556970 123 155 76
0.580641 1.179102 0.793737 -0.504705 -0.659589 -0.556970 123 155 76
0.203752 1.624910 0.376804 0.072636 -0.950307 -0.302723 162 196 73
-0.034290 1.485356 0.757777 0.072636 -0.950307 -0.302723 162 196 73
-0.260274 1.567710 0.445028 0.072636 -0.950307 -0.302723 162 196 73
0.203752 1.624910 0.376804 -0.190750 -0.877239 -0.440529 123 155 76
0.458384 1.488583 0.538021 -0.190750 -0.877239 -0.440529 123 155 76
0.263008 1.374042 0.850708 -0.190750 -0.877239 -0.440529 123 155 76
-0.923240 1.096722 -0.178990 0.763145 -0.582857 0.279082 162 196 73
-0.874551 1.128940 -0.244840 0.763145 -0.582857 0.279082 162 196 73
-0.676445 1.434722 -0.147939 0.763145 -0.582857 0.279082 162 196 73
-0.714568 1.422127 0.390037 0.388334 -0.908022 -0.157143 162 196 73
-0.454318 1.594343 0.038055 0.388334 -0.908022 -0.157143 162 196 73
-0.334198 1.589886 0.360651 0.388334 -0.908022 -0.157143 162 196 73
-0.890048 1.293375 0.140954 0.571599 -0.820256 0.021302 162 196 73
-0.676445 1.434722 -0.147939 0.571599 -0.820256 0.021302 162 196 73
-0.454318 1.594343 0.038055 0.571599 -0.820256 0.021302 162 196 73
-0.036273 1.724214 -0.164374 -0.268631 -0.940657 0.207370 123 155 76
0.283302 1.598629 -0.320061 -0.268631 -0.940657 0.207370 123 155 76
0.349777 1.592282 -0.262739 -0.268631 -0.940657 0.207370 123 155 76
-0.260274 1.567710 0.445028 0.092340 -0.952865 -0.289000 123 155 76
-0.110524 1.474669 0.799641 0.092340 -0.952865 -0.289000 123 155 76
-0.575574 1.449682 0.733434 0.092340 -0.952865 -0.289000 123 155 76
-0.283071 1.706604 0.055157 -0.013296 -0.995408 -0.094796 162 196 73
-0.036273 1.724214 -0.164374 -0.013296 -0.995408 -0.094796 162 196 73
0.255358 1.696369 0.087102 -0.013296 -0.995408 -0.094796 162 196 73
-0.338952 0.988353 1.229225 0.147065 -0.538171 -0.829906 162 196 73
-0.425956 0.983678 1.216838 0.147065 -0.538171 -0.829906 162 196 73
-0.562337 1.267057 1.008908 0.147065 -0.538171 -0.829906 162 196 73
-0.180642 1.287565 1.063248 0.122946 -0.824422 -0.552460 162 196 73
-0.562337 1.267057 1.008908 0.122946 -0.824422 -0.552460 162 196 73
-0.575574 1.449682 0.733434 0.122946 -0.824422 -0.552460 162 196 73
-0.283071 1.706604 0.055157 0.204695 -0.918229 -0.339050 162 196 73
0.072248 1.672679 0.361552 0.204695 -0.918229 -0.339050 162 196 73
-0.246396 1.586416 0.402797 0.204695 -0.918229 -0.339050 162 196 73
-0.260274 1.567710 0.445028 0.155903 -0.913168 -0.376588 162 196 73
-0.364798 1.561018 0.417983 0.155903 -0.913168 -0.376588 162 196 73
-0.334198 1.589886 0.360651 0.155903 -0.913168 -0.376588 162 196 73
0.625176 1.205210 0.722463 0.504705 0.659589 0.556970 162 196 73
0.458384 1.488583 0.538021 0.504705 0.659589 0.556970 162 196 73
0.580641 1.179102 0.793737 0.504705 0.659589 0.556970 162 196 73
-0.246396 1.586416 0.402797 -0.056184 0.919582 0.388860 123 155 76
-0.260274 1.567710 0.445028 -0.056184 0.919582 0.388860 123 155 76
0.203752 1.624910 0.376804 -0.056184 0.919582 0.388860 123 155 76
0.458384 1.488583 0.538021 0.190750 0.877239 0.440528 162 196 73
0.203752 1.624910 0.376804 0.190750 0.877239 0.440528 162 196 73
0.263008 1.374042 0.850708 0.190750 0.877239 0.440528 162 196 73
-0.890048 1.293375 0.140954 -0.763146 0.582857 -0.279081 123 155 76
-0.676445 1.434722 -0.147939 -0.763146 0.582857 -0.279081 123 155 76
-0.923240 1.096722 -0.178990 -0.763146 0.582857 -0.279081 123 155 76
-0.364798 1.561018 0.417983 -0.374536 0.892952 0.249718 123 155 76
-0.334198 1.589886 0.360651 -0.374536 0.892952 0.249718 123 155 76
-0.714568 1.422127 0.390037 -0.374536 0.892952 0.249718 123 155 76
-0.714568 1.422127 0.390037 -0.571599 0.820256 -0.021302 123 155 76
0.283302 1.598629 -0.320061 0.268631 0.940657 -0.207370 162 196 73
-0.036273 1.724214 -0.164374 0.268631 0.940657 -0.207370 162 196 73
0.349777 1.592282 -0.262739 0.268631 0.940657 -0.207370 162 196 73
-0.110524 1.474669 0.799641 -0.092340 0.952865 0.289000 162 196 73
-0.260274 1.567710 0.445028 -0.092340 0.952865 0.289000 162 196 73
-0.575574 1.449682 0.733434 -0.092340 0.952865 0.289000 162 196 73
-0.283071 1.706604 0.055157 0.013296 0.995408 0.094796 162 196 73
-0.180642 1.287565 1.063248 -0.147065 0.538171 0.829906 123 155 76
-0.180642 1.287565 1.063248 -0.122946 0.824422 0.552460 162 196 73
-0.110524 1.474669 0.799641 -0.122946 0.824422 0.552460 162 196 73
-0.562337 1.267057 1.008908 -0.122946 0.824422 0.552460 162 196 73
-0.334198 1.589886 0.360651 -0.124340 0.933653 0.335905 123 155 76
-0.246396 1.586416 0.402797 -0.124340 0.933653 0.335905 123 155 76
-0.283071 1.706604 0.055157 -0.124340 0.933653 0.335905 123 155 76
-0.246396 1.586416 0.402797 -0.137787 0.921575 0.362926 123 155 76
-0.334198 1.589886 0.360651 -0.137787 0.921575 0.362926 123 155 76
-0.260274 1.567710 0.445028 -0.137787 0.921575 0.362926 123 155 76
0.263008 1.374042 0.850708 -0.504706 -0.659589 -0.556969 162 196 73
0.458384 1.488583 0.538021 -0.504706 -0.659589 -0.556969 162 196 73
0.580641 1.179102 0.793737 -0.504706 -0.659589 -0.556969 162 196 73
-0.246396 1.586416 0.402797 0.056184 -0.919582 -0.388860 162 196 73
0.203752 1.624910 0.376804 0.056184 -0.919582 -0.388860 162 196 73
-0.260274 1.567710 0.445028 0.056184 -0.919582 -0.388860 162 196 73
-0.034290 1.485356 0.757777 -0.190750 -0.877239 -0.440528 162 196 73
0.203752 1.624910 0.376804 -0.190750 -0.877239 -0.440528 162 196 73
0.263008 1.374042 0.850708 -0.190750 -0.877239 -0.440528 162 196 73
-0.890048 1.293375 0.140954 0.763146 -0.582858 0.279081 162 196 73
-0.923240 1.096722 -0.178990 0.763146 -0.582858 0.279081 162 196 73
-0.676445 1.434722 -0.147939 0.763146 -0.582858 0.279081 162 196 73
-0.364798 1.561018 0.417983 0.374536 -0.892952 -0.249718 162 196 73
-0.714568 1.422127 0.390037 0.374536 -0.892952 -0.249718 162 196 73
-0.334198 1.589886 0.360651 0.374536 -0.892952 -0.249718 162 196 73
-0.714568 1.422127 0.390037 0.571599 -0.820256 0.021302 162 196 73
0.255358 1.696369 0.087102 -0.268630 -0.940657 0.207371 162 196 73
-0.036273 1.724214 -0.164374 -0.268630 -0.940657 0.207371 162 196 73
0.349777 1.592282 -0.262739 -0.268630 -0.940657 0.207371 162 196 73
-0.364798 1.561018 0.417983 0.127007 -0.958939 -0.253587 162 196 73
-0.260274 1.567710 0.445028 0.127007 -0.958939 -0.253587 162 196 73
-0.575574 1.449682 0.733434 0.127007 -0.958939 -0.253587 162 196 73
0.072248 1.672679 0.361552 -0.013296 -0.995408 -0.094796 162 196 73
-0.180642 1.287565 1.063248 0.147065 -0.538171 -0.829906 162 196 73
-0.110524 1.474669 0.799641 0.122947 -0.824422 -0.552460 162 196 73
-0.180642 1.287565 1.063248 0.122947 -0.824422 -0.552460 162 196 73
-0.575574 1.449682 0.733434 0.122947 -0.824422 -0.552460 162 196 73
-0.334198 1.589886 0.360651 0.124340 -0.933653 -0.335905 162 196 73
-0.283071 1.706604 0.055157 0.124340 -0.933653 -0.335905 162 196 73
-0.246396 1.586416 0.402797 0.124340 -0.933653 -0.335905 162 196 73
-0.246396 1.586416 0.402797 0.137787 -0.921575 -0.362926 162 196 73
-0.260274 1.567710 0.445028 0.137787 -0.921575 -0.362926 162 196 73
-0.334198 1.589886 0.360651 0.137787 -0.921575 -0.362926 162 196 73
3 0 1 2
3 3 4 5
3 6 7 8
3 9 10 11
3 12 13 14
3 15 16 17
3 18 19 20
3 21 22 23
3 24 25 26
3 27 28 29
3 30 31 32
3 33 34 35
3 36 37 38
3 39 40 41
3 42 43 44
3 45 46 47
3 48 49 50
3 51 52 53
3 54 55 56
3 57 58 59
3 60 61 62
3 63 64 65
3 66 67 68
3 69 70 71
3 72 73 74
3 75 76 77
3 78 79 80
3 81 82 83
3 84 85 86
3 87 88 89
3 90 91 92
3 93 94 95
3 96 97 98
3 99 100 101
3 102 103 104
3 105 106 107
3 108 109 110
3 111 112 113
3 114 115 116
3 117 118 119
3 120 121 122
3 123 124 125
3 126 127 128
3 129 130 131
3 132 133 134
3 135 136 137
3 138 139 140
3 141 142 143
3 144 145 146
3 147 148 149
3 150 151 152
3 153 154 155
3 156 157 158
3 159 160 161
3 162 163 164
3 165 87 89
3 166 167 168
3 169 170 171
3 172 96 98
3 173 99 101
3 174 175 176
3 177 178 179
3 180 181 182
3 183 184 185
3 186 187 188
3 189 190 191
3 192 193 194
3 195 196 197
3 198 126 128
3 199 200 201
3 202 203 204
3 205 135 137
3 206 138 140
3 207 208 209
3 210 211 212
3 213 214 215
